<?xml version="1.0" standalone="no"?>
<!DOCTYPE svg PUBLIC "-//W3C//DTD SVG 1.1//EN" "http://www.w3.org/Graphics/SVG/1.1/DTD/svg11.dtd" >
<svg xmlns="http://www.w3.org/2000/svg">
<metadata></metadata>
<defs>
<font id="militiasansitalic" horiz-adv-x="866" >
<font-face units-per-em="2048" ascent="1536" descent="-512" />
<missing-glyph horiz-adv-x="1024" />
<glyph horiz-adv-x="2048" />
<glyph horiz-adv-x="2048" />
<glyph unicode="&#xd;" horiz-adv-x="2048" />
<glyph unicode=" "  horiz-adv-x="1024" />
<glyph unicode="&#x09;" horiz-adv-x="1024" />
<glyph unicode="&#xa0;" horiz-adv-x="1024" />
<glyph unicode="!" horiz-adv-x="765" d="M6 2q21 88 60 238q43 -1 129.5 1t128.5 1l-64 -240h-254zM100 362q6 27 35 136l264 936h256q-139 -488 -182 -646q-10 -35 -27 -97.5t-44 -159t-46 -166.5q-127 0 -256 -3z" />
<glyph unicode="&#x22;" horiz-adv-x="860" d="M6 1030q-1 0 8.5 37t19 75t9.5 40q2 6 13 45t25.5 92t29.5 108h260l-54 -208q-84 -58 -143 -93zM381 1030q-1 0 18 74t21 78q7 35 67 245h258l-53 -208q-84 -58 -143 -93q-33 -18 -75.5 -42.5t-67 -39t-25.5 -14.5z" />
<glyph unicode="#" horiz-adv-x="1409" d="M51 436q26 91 37 139q19 86 27 109q3 6 10 6q1 0 89 1t93 1l39 166h-172q-6 0 -6 8l61 246q3 8 11 8h198q15 53 28 98t21.5 76t22.5 82h250q-19 -69 -39.5 -140.5t-32.5 -115.5h172q15 53 28 98t21.5 76t22.5 82q84 0 252 4q-18 -66 -38.5 -136t-35.5 -124h80t53.5 -0.5 t30 -1t16.5 -0.5h6q16 0 11 -12q-1 -4 -5.5 -21.5t-13 -50t-16.5 -61.5l-33 -115q0 -6 -6 -6l-45 -2h-6h-138q-2 -8 -43 -160h78.5t52 -0.5t28.5 -1t16 -0.5h4q14 0 12 -12t-37 -133q-29 -113 -31 -117q-3 -6 -10 -6h-186q-19 -61 -56 -211q0 -2 -2.5 -11.5t-3.5 -13.5 q-139 -3 -272 0q14 55 26.5 104t17.5 69t9 36.5t6 26.5q-1 0 -73.5 1t-73.5 1q-60 -230 -64 -238q-40 0 -95.5 -0.5t-96 -0.5t-80.5 1q63 238 63 242q0 2 -2 2h-174q-9 0 -6 8zM580 690q18 0 53.5 0.5t64.5 1t31 0.5q41 155 41 158q-9 0 -20 -0.5t-22 -0.5h-22h-21.5h-20 t-17 0.5t-13 0.5h-8.5h-3q-2 -8 -14 -53t-29 -107z" />
<glyph unicode="$" horiz-adv-x="1153" d="M-2 231q3 27 11.5 66.5t15 65t8.5 28.5q2 4 6 4h248q7 0 4 -8q-17 -52 -10 -96q3 -30 35.5 -47t89.5 -11q110 11 147 136q17 54 37 129q21 81 -58 127q-47 27 -74 43t-80.5 51.5t-89 70.5t-50.5 66q-39 80 0 217q0 1 4 14.5t6 20.5t7.5 23.5t10.5 28t12.5 29t15.5 31.5 t18.5 29.5t23 30t26.5 27.5q58 52 108 79t120 35q2 6 4 15.5t3.5 16t2.5 9.5q1 2 1.5 5t1 4t1.5 3.5t2 3l3 1.5t4 1.5t5 0.5h93h30t37 -0.5t35 -1t28 -0.5h11q2 0 2 -6q-1 -2 -3 -10.5t-5 -20t-6 -19.5q149 -8 192 -123q7 -18 9.5 -41t1.5 -43.5t-3.5 -42.5t-6 -37t-6.5 -28 t-3 -14q-6 -17 -10 -17h-125h-117q-6 0 -6 6q17 54 -11.5 80.5t-92.5 26.5q-78 0 -115 -33t-51 -88q-19 -77 22 -100l287 -176q105 -77 53 -275q-25 -101 -72 -244q-29 -88 -75 -137t-113 -90q-56 -33 -125 -43q-3 -11 -8 -30.5t-6 -20.5q-3 -10 -6 -10q-41 0 -126 3t-130 3 q-4 0 -4 4q0 1 2 9l5 20t5 18q-70 7 -119 35q-52 33 -72 87.5t-16 108.5z" />
<glyph unicode="%" horiz-adv-x="1464" d="M2 12h266q124 148 181 230q29 41 267.5 343.5t307.5 393.5q63 83 148.5 192.5t139.5 177.5l54 68h-270q-256 -339 -344 -448q-13 -17 -201.5 -257t-286.5 -364zM170 930q0 48 14 90q7 33 64 221q20 70 78.5 123t130.5 53h73q74 0 107.5 -47.5t7.5 -140.5l-55 -219 q-59 -199 -236 -199h-14q-52 0 -83 7t-58 34q-29 30 -29 78zM346 997q-3 -14 4 -24t23 -10q34 0 45 28q16 52 26 96q33 125 37 146q6 37 -24 37q-37 0 -47 -37q0 -2 -23 -84q-1 -4 -4.5 -17t-6.5 -26.5t-7 -28.5l-11 -38.5t-12 -41.5zM719 122.5q0 48.5 14 90.5q16 56 19 66 q32 111 45 155q20 68 79.5 122t131.5 54h73q73 0 106.5 -48t8.5 -142l-57 -219q-55 -196 -236 -199h-14q-50 0 -81.5 8t-59.5 35q-29 29 -29 77.5zM897 188q-5 -14 2 -23t25 -9q35 0 45 32q12 40 34.5 125.5t26.5 112.5q9 37 -22 37q-36 0 -47 -39q-18 -61 -23 -82 q-1 -4 -4.5 -17t-6.5 -26.5t-7 -28.5q-18 -61 -23 -82z" />
<glyph unicode="&#x26;" horiz-adv-x="1114" d="M5.5 219.5q-5.5 87.5 29.5 204.5q1 7 16 63q52 170 137 246q27 25 74 58q-1 3 -9.5 22.5t-10.5 24.5t-9 23t-8.5 25.5t-6.5 25t-5.5 28t-2 27.5t0.5 31l4.5 31.5t7.5 35.5q4 15 17 55q36 122 144 216t234 94h158q64 0 116 -18.5t91 -59t48.5 -104t-11.5 -152.5 q-2 -5 -4 -13.5t-4 -13.5h-267l-2 4q5 26 5 45t-7.5 40t-32 32.5t-65.5 11.5q-73 0 -112 -31.5t-60 -91.5q-3 -12 -5 -22.5t-3 -18.5t0.5 -18.5t1.5 -15t3.5 -15.5t4.5 -13.5l6 -15t6 -14.5q9 -22 68.5 -141.5t71.5 -145.5q6 -12 10 -22q3 9 9.5 36t10.5 40q3 8 7 8 q82 2 262 2q-62 -244 -99 -367q-2 -6 -24 -71l133 -283h-281q-12 25 -32 66q-104 -66 -246 -66q-59 0 -81.5 0.5t-64 4t-63 11t-48.5 22.5t-50 38q-57 54 -62.5 141.5zM283 371q-16 -60 7.5 -92.5t65.5 -32.5h45q69 0 113 41q-15 31 -42.5 87.5t-50 102.5t-42.5 86 q-52 -21 -72 -104q-18 -63 -24 -88z" />
<glyph unicode="'" horiz-adv-x="430" d="M2 1147q-1 0 8 36l18 72t9 37l23 84q22 85 42 156h121q86 0 129 -2l-51 -201q-82 -57 -137 -88z" />
<glyph unicode="(" horiz-adv-x="817" d="M1.5 -14.5q-3.5 92.5 31.5 207.5q127 490 166 626q42 144 86.5 306.5t64.5 228.5q32 111 132.5 201.5t217.5 103.5q1 -6 3.5 -49t5 -99.5t4.5 -80.5q-54 -10 -84 -44.5t-49 -93.5q-9 -31 -29.5 -108.5t-52.5 -195.5t-49 -183q-27 -103 -96.5 -370.5t-78.5 -301.5 q-11 -48 -1.5 -77t34.5 -42q-25 -62 -71 -145q-15 -29 -52 -96q-73 15 -125 65q-54 55 -57.5 147.5z" />
<glyph unicode=")" horiz-adv-x="833" d="M16 -250q0 113 11 248q74 26 102 129q98 354 152 571q155 601 159 623q16 74 -14 104q29 38 176 228q78 -35 109.5 -112t-0.5 -198q-29 -106 -163.5 -616t-168.5 -629q-41 -148 -134 -237t-229 -111z" />
<glyph unicode="*" horiz-adv-x="608" d="M2 1126q10 45 33 123h98q-31 46 -49 68q1 1 104 84q7 -12 56 -76q20 78 26 105q4 0 16.5 0.5t38.5 1t62 0.5q0 -1 -31 -113q31 23 47 37l60 45q7 -9 21.5 -29t21.5 -29l14 -18q-12 -10 -108 -84q1 0 35 -1t83 -1q-4 -16 -13.5 -53t-14.5 -58q-39 2 -117 2q1 -1 21 -27.5 t28 -41.5q-54 -39 -106 -84q-9 9 -26 32.5t-21 28.5q-13 -50 -23 -84h-119q2 10 10 41.5t11 44.5q-27 -24 -86 -69q-11 14 -32.5 43.5t-31.5 42.5q35 27 90 71q-12 0 -44.5 -1t-53.5 -1z" />
<glyph unicode="+" horiz-adv-x="1105" d="M2 629q1 3 6.5 24.5t14.5 55t16 59.5q19 88 27 111q0 6 10 6q202 0 356 2q22 80 54.5 204.5t43.5 165.5q33 1 118.5 3.5t137.5 3.5q-19 -68 -53.5 -197.5t-48.5 -181.5h95.5t90 -0.5t72.5 -1t52 -0.5h20q9 0 6 -6q-2 -4 -7 -23t-14.5 -55t-17.5 -64q-8 -30 -16.5 -59 t-12 -42.5t-4.5 -15.5q-2 -6 -6 -6h-14q-13 0 -34 -0.5t-44.5 -1t-48.5 -0.5h-43h-142l-90 -342q-4 0 -140 -1.5t-136 1.5l88 353h-330h-1q-7 -1 -5 8z" />
<glyph unicode="," horiz-adv-x="454" d="M4 -188q39 147 39 149q34 133 78 289h260l-66 -250q-84 -57 -143 -92q-31 -17 -74.5 -42.5t-68 -39.5t-25.5 -14z" />
<glyph unicode="-" horiz-adv-x="864" d="M2 614l68 248q88 3 312.5 4t391.5 -2l-67 -252q-73 2 -382.5 1.5t-322.5 0.5z" />
<glyph unicode="." horiz-adv-x="411" d="M6 2q-4 0 0 4q5 26 62 244h264l-66 -250h-127z" />
<glyph unicode="/" horiz-adv-x="1505" d="M2 -4q135 164 301 375q479 609 488 620l342 449h288q-201 -253 -342 -439q-55 -72 -191.5 -245t-247.5 -315t-136 -177q-25 -36 -79.5 -103t-96.5 -116l-41 -49h-285z" />
<glyph unicode="0" horiz-adv-x="1114" d="M2.5 229q-4.5 91 30.5 207q15 56 34 135t62 230q36 126 94 321q33 118 144.5 210.5t236.5 92.5h154q62 0 112 -18t87.5 -58t46 -102.5t-12.5 -150.5q-22 -81 -89 -345.5t-103 -390.5q-48 -166 -160.5 -257.5t-280.5 -92.5q-69 0 -97 1t-72 7.5t-72 22t-56 43.5 q-54 54 -58.5 145zM276 389q-37 -137 111 -137q123 0 162 139q128 486 174 682q5 25 5.5 44t-7 39.5t-31.5 32t-63 11.5q-77 0 -115 -35t-61 -104q-3 -12 -74 -277q-28 -104 -60.5 -235t-40.5 -160z" />
<glyph unicode="1" horiz-adv-x="735" d="M6 2l227 887l80 303l-47 2l111 240q8 2 63 2q56 0 114 -1t77 -1q9 0 6 -11q-4 -18 -43 -163q-82 -294 -102 -369q-24 -95 -78 -287.5t-70 -253.5l-94 -348h-244z" />
<glyph unicode="2" horiz-adv-x="1204" d="M6 2q31 125 35 141q2 9 4.5 15t4.5 8l1 2q579 666 649 752q86 104 101 159q4 25 3 51.5t-28 47t-78 20.5q-70 0 -108 -29.5t-60 -85.5q-2 -1 -35 -0.5t-34 0.5q-99 3 -180 0q2 6 5.5 19.5t4.5 17.5q35 120 147.5 213.5t237.5 93.5q63 4 153 -2q43 -1 82.5 -12t78.5 -35 t60.5 -63.5t28.5 -98.5t-18 -139q-39 -138 -211 -336q-65 -74 -217.5 -250.5t-188.5 -220.5q-4 -4 2 -4q26 0 192.5 1t184.5 1q6 0 6.5 -3t-2.5 -13q-31 -116 -57 -217q-6 -24 -8.5 -28.5t-11.5 -4.5h-215h-416h-113z" />
<glyph unicode="3" horiz-adv-x="1144" d="M4 211q0 29 6 59q5 28 21 80q168 0 266 4q-10 -110 104 -110h11q136 0 168 125l26 100q20 73 -11 109t-91 36l-146 2l70 254h145q45 0 74 10t58 33q40 34 63 113q38 160 -94 170h-29q-52 0 -95.5 -21t-62.5 -67q-53 -1 -131 -1t-123 -1q25 135 134.5 230t250.5 98h209 q82 0 139 -43.5t77 -106.5t6 -129q-22 -104 -31 -136.5t-27 -78.5q-22 -55 -63.5 -107.5t-100.5 -84.5q2 -1 5 -4t12 -13t16.5 -21t15.5 -29t12 -37t3.5 -44.5t-8.5 -52.5q-12 -45 -33 -126.5t-39 -144.5q-13 -46 -43 -92t-78.5 -90t-124.5 -71t-166 -27h-129 q-61 0 -108.5 12.5t-76.5 34t-48 48.5t-26 59t-7 61z" />
<glyph unicode="4" horiz-adv-x="1208" d="M2 401q0 19 40 159l5 15q34 36 149.5 164t159.5 179q18 24 108 126.5t132 145.5l229 242h267q-94 -352 -125 -461q-8 -29 -44 -153t-49 -169l68 -2q-21 -73 -39 -139l-29 -109h-69q-14 -47 -43 -151.5t-50 -182.5t-22 -79q9 3 -272 2q47 157 74 270q4 15 36 143h-57 q-45 -2 -162.5 -2t-212.5 1zM430 647q18 -2 98 -2h68q15 63 50.5 182t45.5 142z" />
<glyph unicode="5" horiz-adv-x="1132" d="M9 260.5q8 55.5 22 103.5l14 48h250q-10 -33 -14 -66q-6 -43 12.5 -68.5t56.5 -31.5q46 -8 94 2q52 10 81.5 45t45.5 94q2 8 16 65t23 89q26 88 8.5 132.5t-81.5 45.5h-408q78 272 94 338q6 30 31 122.5t46 170.5l22 77h403h317l-57 -239h-479l-60 -221l210 -2h6 q133 0 206 -92t27 -261q-22 -94 -61 -233q-31 -116 -92.5 -195t-129.5 -116q-64 -33 -134.5 -48.5t-192.5 -15.5q-129 0 -193 46t-82 112q-9 43 -1 98.5z" />
<glyph unicode="6" horiz-adv-x="991" d="M6.5 181.5q-8.5 63.5 13.5 152.5l46 164q28 103 121 263t185.5 289t182.5 250t98 134l275 -4q-191 -294 -379 -582q95 0 149.5 -14t102.5 -60q25 -28 40.5 -58t18 -69t2 -69t-14 -84.5t-22.5 -85.5t-30 -99q-3 -8 -4 -12q-38 -122 -147 -209.5t-234 -87.5h-154 q-63 0 -114.5 18.5t-89 59t-46 104zM289 354q-28 -127 98 -127q71 0 111.5 28.5t60.5 96.5q10 35 33 125q16 60 -8.5 93.5t-67.5 33.5h-45q-62 0 -97.5 -33t-54.5 -102q-14 -47 -30 -115z" />
<glyph unicode="7" horiz-adv-x="1232" d="M8 6l752 1161q-39 -3 -128 -3.5t-179 0t-189 -0.5q66 238 72 256q2 11 20 11h807l-39 -148q-779 -1202 -843 -1278z" />
<glyph unicode="8" horiz-adv-x="1105" d="M-0.5 266q0.5 34 8.5 64q24 85 55 202q10 36 31 70t43 57t42.5 40.5t34.5 25.5l13 8q-41 31 -53.5 84.5t-3.5 108.5q2 19 4 30t6.5 28t8 28t14.5 46.5t20 65.5q16 52 53.5 105.5t90 99t121.5 74.5t139 29h161q82 0 143.5 -47.5t85.5 -117t7 -137.5q-6 -26 -13 -57 t-9.5 -43t-7 -29t-7.5 -26t-7.5 -21l-10.5 -28q-54 -135 -164 -193q2 -2 5 -4.5t12 -12.5t16.5 -21.5t15.5 -29.5t11.5 -37t3 -44.5t-8.5 -51.5q-17 -64 -28 -109.5t-27 -103.5q-13 -46 -46.5 -98t-86.5 -103.5t-132.5 -85.5t-168.5 -34h-52h-53q-60 0 -108 16.5t-77.5 44.5 t-49 62.5t-26 72.5t-6 72zM279 383q-15 -59 13.5 -98.5t92.5 -40.5q68 0 116 39t64 100l19 70q20 76 -11 111.5t-92 35.5q-63 0 -109 -31.5t-73 -115.5q-4 -9 -20 -70zM436 1010q-18 -68 10 -112t101 -44q79 0 123.5 35.5t70.5 120.5q28 97 9 141q-9 21 -27.5 32t-35 13 t-44.5 2q-34 0 -49.5 -1t-43 -11.5t-48.5 -32.5q-13 -13 -23 -28t-17.5 -34t-10.5 -28t-9 -30.5t-6 -22.5z" />
<glyph unicode="9" horiz-adv-x="1034" d="M8 0q197 302 383 590q-272 0 -305 194q-17 107 66 353q37 115 146 204t232 89h152q62 0 112.5 -18.5t87.5 -58t45.5 -102.5t-12.5 -151q-1 -4 -12 -45t-21 -78t-12 -41q-32 -106 -75 -170q-75 -113 -218.5 -329t-211.5 -317.5t-86 -121.5zM350 956q-16 -60 8 -93.5 t66 -33.5h43q61 0 96.5 33t54.5 103q4 15 11 40.5t12 44.5t6 21q33 133 -96 133q-128 0 -174 -139q-10 -44 -27 -109z" />
<glyph unicode=":" horiz-adv-x="608" d="M2 2v4q13 45 61 244h265l-66 -250h-125h-35.5t-36.5 0.5t-31 1t-23 0.5h-9zM172 635q1 2 7.5 30t14.5 61t21 77.5t25 79.5h260l-66 -248h-127h-135z" />
<glyph unicode=";" horiz-adv-x="684" d="M16 -174q37 147 39 149q35 128 86 320h260l-73 -283q-74 -47 -133 -80q-27 -16 -76.5 -45.5t-75.5 -45t-27 -15.5zM246 680v4q2 6 12 44.5t25 91.5t30 108h260l-65 -248q-70 -2 -127 -2h-35.5t-36.5 0.5t-31 1t-23 0.5h-9z" />
<glyph unicode="&#x3c;" horiz-adv-x="1034" d="M4 618l72 261l270 79q335 94 596 150q-35 -132 -72 -289l-319 -69l285 -76q-57 -230 -70 -275z" />
<glyph unicode="=" horiz-adv-x="970" d="M0 614l66 250q88 3 313.5 4t392.5 -2l-67 -252q-44 1 -158.5 1h-222.5t-212 -0.5t-112 -0.5zM117 1051l65 247q88 3 314 4t393 -2l-68 -251q-65 2 -704 2z" />
<glyph unicode="&#x3e;" horiz-adv-x="1050" d="M2 397q12 48 36 144.5t36 144.5l319 72l-284 73q8 32 21.5 87.5t25 102t22.5 87.5l760 -219l-70 -262l-294 -85q-320 -89 -572 -145z" />
<glyph unicode="?" horiz-adv-x="995" d="M2 0q2 10 25 90t39 156l253 2l-65 -248h-115h-137zM84 1077q-3 0 0 17q2 13 11 42t34.5 79.5t56.5 84.5q115 125 291 125h144q73 0 119 -14.5t70.5 -37.5t49.5 -66q43 -77 -2 -234q-6 -26 -16.5 -57.5t-38 -81t-62.5 -84.5q-16 -16 -29.5 -28t-31 -23.5t-26 -17.5 t-32 -17.5t-30.5 -14.5t-39.5 -17.5t-42.5 -18.5q-31 -9 -59.5 -27.5t-28.5 -36.5q-15 -51 -34 -128t-32 -124q-17 0 -40.5 -0.5t-47 0t-48 0.5t-45.5 0.5t-38 1t-27 0.5h-10q4 21 19.5 72t19.5 66l6 23l29 108q26 94 74 146t137 87l2 2q29 10 121 51q67 28 90 115 q16 55 -3 88t-97 33q-23 0 -43 -2q-51 -3 -80 -34.5t-39 -70.5q-3 -6 -8 -6h-119h-125z" />
<glyph unicode="@" horiz-adv-x="1544" d="M4 213.5q-4 91.5 31 206.5q22 83 24 94t19 72q71 264 151 538q33 114 135 208.5t218 97.5q41 0 149.5 1t298.5 1l191 -5q126 -7 190 -90t23 -243q-22 -82 -64.5 -246t-64.5 -246l-66 -248q-48 -168 -161 -260t-281 -92q-126 -2 -188 10t-115 64q-37 37 -49 92t-4.5 116 t30.5 146q47 183 70 260q35 120 147 213.5t238 93.5h155q22 0 58 -4l9 26q2 6 5 17q5 20 6 21q26 141 -90 143l-485 -4q-84 -5 -123 -133q-12 -37 -133 -492q-28 -104 -36 -141t-16 -68q-10 -48 0 -77.5t35 -40.5q-17 -41 -34 -76t-46.5 -89.5t-42.5 -78.5q-76 16 -125 68 q-55 54 -59 145.5zM702 371q-16 -60 8.5 -93.5t67.5 -33.5h45q123 0 162 141q33 121 62 256q5 26 4.5 44.5t-8 39.5t-31.5 32t-64 11q-77 0 -116 -35.5t-60 -103.5q-14 -44 -70 -258z" />
<glyph unicode="A" horiz-adv-x="1165" d="M4 0q98 181 219 408q54 101 192 352t251.5 455.5t113.5 205.5q4 9 15 9h256q6 0 6 -11q0 -209 -4 -342q-2 -56 -11 -606q-2 -105 -6 -221t-7 -180l-3 -64q-133 -2 -190 -2l-97 -2l1 18l12 254q-84 0 -172 -2l-142 -2q-151 -260 -153 -264q-6 -6 -9 -6h-272zM573 516 q98 2 172 2q1 16 5 82l12 268q-60 -112 -111 -206z" />
<glyph unicode="B" horiz-adv-x="1187" d="M0 8q0 2 190 699t193 706q5 17 20 17h471q122 0 184 -85q45 -61 44 -134q0 -28 -6 -58q-6 -23 -14 -56.5t-11 -45t-8 -30t-8 -28t-8 -22.5t-11 -29q-54 -135 -162 -192q2 -1 5 -4t12 -13t16.5 -21t15 -29t11.5 -37t4 -44.5t-8 -52.5q-14 -53 -34.5 -130t-37.5 -138 q-13 -45 -42.5 -90.5t-77.5 -89t-123 -70.5t-164 -27h-449q-2 0 -2 4zM336 250h117q67 0 114.5 38t65.5 99l22 84q8 29 8 52q0 37 -20 59q-32 36 -94 36h-107zM518 872q44 -2 105 -2q82 0 139 45q46 36 63 111q7 25 10 38q2 10 2 26v11q-1 24 -10 46q-21 47 -106 47 q-15 0 -40 0.5t-44.5 1t-20.5 0.5q-8 0 -12 -8z" />
<glyph unicode="C" horiz-adv-x="1122" d="M3 221v19q0 84 30 186q21 78 42 158t58 219q66 245 90 325q35 119 145.5 211.5t235.5 92.5h66h80h41q62 0 112.5 -19t87.5 -59t45 -102q2 -18 3 -39q0 -50 -15 -111v-2h-264q2 14 2 26q0 80 -100 80h-41q-74 -1 -111.5 -37t-58.5 -102q-4 -14 -74 -274 q-61 -226 -103 -424q-5 -26 -5 -46q0 -47 28 -65q23 -15 49 -20q27 -2 50 -2q62 0 91 16q71 38 93 115h256q0 -5 -5 -15q-48 -166 -159.5 -257.5t-276.5 -92.5h-110q-78 2 -129.5 17t-94.5 57q-54 54 -58 145z" />
<glyph unicode="D" horiz-adv-x="1177" d="M8 2q47 193 96 375l291 1048q230 2 441 2h7q161 0 227 -97q37 -54 37 -143q0 -74 -26 -173q-41 -156 -85 -315t-81 -298q-57 -208 -168.5 -303.5t-277.5 -95.5h-285h-176zM258 2h207h-160h-47zM322 250h159q131 0 174 143q16 51 68 230q18 61 60.5 215t52.5 190 q6 23 6 43q0 37 -19 67q-28 46 -93 46h-3h-145q-135 -473 -168 -590z" />
<glyph unicode="E" horiz-adv-x="1228" d="M0 2q11 47 27 117q12 54 88 332q18 70 64.5 254t62.5 241q119 426 125 457q7 20 24 20q16 0 285.5 1t300.5 1h174q-35 -147 -53 -215q-9 -32 -13 -36l-1 -2q-2 -3 -3.5 -4t-5.5 -1l-51 -1q-51 -1 -125 -2t-129 -1h-182q-5 0 -8 -6q-1 -3 -7.5 -29.5t-16.5 -65t-17 -65.5 l-31 -123q31 1 72 1t92 -1q100 -2 223 -2q3 0 0 -6q-4 -13 -37 -141q-34 -120 -37 -123q0 -2 -16 -2q-4 0 -34.5 -0.5t-74 -1t-78.5 -0.5h-184l-94 -350q119 -4 260 -4h236l-64 -244q-91 1 -182 1l-182 -1h-93h-163q-148 2 -152 2zM565 0h197h-197z" />
<glyph unicode="F" horiz-adv-x="1216" d="M0 2q49 186 96 352q21 78 66 253t69 263q27 95 61 225t42 158q9 34 21 77t17 62t7 23q2 12 6 12h387h367q-9 -33 -23 -94l-37 -145q-190 0 -325 2l-170 4q-39 -139 -62 -213l-30 -113h395q-5 -24 -19 -77l-51 -181q-196 -2 -274 -2h-131q-21 -69 -70 -243l-100 -363h-242 z" />
<glyph unicode="G" horiz-adv-x="1148" d="M7 223q-1 11 -1 23q0 82 31 182q14 53 34.5 138t63.5 237q75 254 94 321q35 118 145.5 210t237.5 96q50 1 97 1t92 -1q62 -2 112 -21t87.5 -58.5t45.5 -101.5q3 -18 3 -38q0 -50 -15 -113q-3 -9 -8 -29.5t-8 -30.5h-260q2 7 8 37q5 26 5.5 45t-7 39.5t-31.5 31.5t-63 11 h-41q-74 -1 -111.5 -36.5t-58.5 -102.5q-15 -44 -74 -277q-28 -104 -63 -245t-43 -170q-6 -23 -6 -42q0 -32 16 -53q21 -27 61 -30q15 -3 48 -3q12 0 27 1q54 1 75 12q64 26 90 127q4 16 14 52t14 54h-172q5 19 19 74l45 166h285l141 -4q-55 -224 -96 -371 q-48 -168 -160.5 -259t-280.5 -91h-110q-78 0 -129 15.5t-94 58.5q-54 54 -59 145z" />
<glyph unicode="H" horiz-adv-x="1339" d="M0 0q15 55 31 125q12 54 82 319q23 84 70.5 268t60.5 232q11 39 44.5 161t59 216t27.5 98q3 13 14 13h256l4 -2q0 -1 -27 -97t-56 -202.5t-36 -135.5l-30 -123h342q25 92 56.5 212.5t41.5 158.5t21.5 81.5t18 68t7.5 28.5q5 11 8 11h258q-55 -212 -92 -345 q0 -1 -46 -175.5t-103 -387t-80 -293.5l-68 -233l-254 2q48 186 95 354q51 197 61 240h-156h-184l-158 -594h-268z" />
<glyph unicode="I" horiz-adv-x="749" d="M0 0q57 205 106 387l291 1047h252q-200 -717 -231 -832l-164 -602h-254z" />
<glyph unicode="J" horiz-adv-x="927" d="M0 4l63 232q6 -1 15 -1q19 0 53 3q109 11 148 133q4 12 8 32q30 118 67 250l213 781h254q-118 -441 -151 -560q-17 -57 -57 -204t-72 -267.5t-33 -126.5q-25 -73 -75.5 -127.5t-102 -81.5t-112.5 -43.5t-95 -20t-60 -3.5q-38 0 -63 4z" />
<glyph unicode="K" horiz-adv-x="1306" d="M2 2q19 72 70 262q16 62 202 754l111 416l277 -2q-39 -144 -72 -267l-53 -196q140 161 251 282q50 54 90 99t55 64l15 18q50 0 105 -2l176 -3q-266 -304 -481 -548q-8 -9 -25 -28t-25 -28q83 -373 99 -452l75 -369h-294q-39 180 -70 354q-25 139 -39 203l-70 -82 q-16 -55 -51 -186l-78 -287q-117 0 -178 -2h-90z" />
<glyph unicode="L" horiz-adv-x="923" d="M0 0q168 667 240 940l129 494h284q-120 -452 -192 -711q-31 -116 -60.5 -232.5t-42.5 -175.5l-14 -59q34 1 69 1q70 0 146 -3l281 -2q-13 -52 -27 -111l-37 -141q-70 1 -144.5 1t-152.5 -1h-299h-180z" />
<glyph unicode="M" horiz-adv-x="1607" d="M2 0q39 140 100 373q44 169 232 833l59 221q41 3 135 3h140q20 -84 67 -234l78 -238q123 134 217 238q42 46 92.5 104.5t80.5 93.5l30 36h258q-45 -187 -88 -347l-279 -1083h-1h-1h-1h-1h-1h-1h-1h-1h-1h-1h-1h-1h-1h-1h-1h-1h-1h-1h-1h-1h-1h-1h-1h-1h-1h-1h-1h-1h-1h-1 h-1h-1h-1h-1h-1h-1h-1h-1h-1h-1h-1h-1h-1h-1h-1h-1h-1h-2h-1h-1h-1h-1h-1h-1h-1h-1h-2h-1h-1h-1h-1h-2h-1h-1h-1h-1h-2h-1h-1h-1h-2h-1h-1h-2h-1h-1h-2h-1h-1h-2h-1h-1h-2h-1h-1h-2h-1h-2h-1h-1h-2h-1h-2h-1h-2h-1h-1h-2h-1h-2h-1h-2h-1h-2h-1h-2h-1h-2h-2h-1h-2h-1h-2h-1 h-2h-2h-1h-2h-1h-2h-2h-1h-2h-2h-1h-2h-2h-1h-2h-2h-1h-2h-2h-2h-1h-2h-2h-1h-2h-2h-2h-2h-1h-2h-2h-2h-2h-1h-2h-2h-2h-2h-2h-1h-2h-2h-2h-2h-2h-2h-2h-2h-2h-2h-2h-2h-2h-2h-2h-2h-2h-2h-2h-2h-2h-2h-2h-3h-2h-2h-2h-2h-3h-2h-2h-3h-2h-9q10 43 53 223l162 629 q-100 -102 -213 -223l-174 -178l-160 399q-41 -147 -88 -311l-150 -541h-92z" />
<glyph unicode="N" horiz-adv-x="1609" d="M2 -2q86 312 188 684l207 748q48 -3 140 -3h100q29 -94 70 -227q49 -152 86 -291l90 -315q37 121 80 283l153 553h154l119 -3q-19 -63 -60 -215q-19 -73 -164 -587l-176 -627h1h-1h-1h-1h-1h-1h-1h-1h-1h-1h-1h-1h-1h-1h-1h-1h-1h-1h-1h-1h-1h-1h-1h-1h-1h-1h-1h-1h-1h-1 h-1h-1h-1h-1h-1h-1h-1h-1h-1h-1h-1h-1h-1h-1h-1h-1h-1h-1h-1h-1h-1h-2h-1h-1h-1h-1h-1h-1h-2h-1h-1h-1h-1h-2h-1h-1h-1h-1h-2h-1h-1h-1h-2h-1h-1h-2h-1h-1h-2h-1h-1h-1h-2h-1h-2h-1h-1h-2h-1h-1h-2h-1h-2h-1h-1h-2h-1h-2h-1h-2h-1h-2h-1h-1h-2h-1h-2h-1h-2h-1h-2h-1h-2h-2 h-1h-2h-1h-2h-1h-2h-1h-2h-2h-1h-2h-1h-2h-1h-2h-2h-1h-2h-2h-1h-2h-1h-2h-2h-1h-2h-2h-1h-2h-2h-1h-2h-2h-2h-1h-2h-2h-1h-2h-2h-2h-1h-2h-2h-1h-2h-2h-2h-1h-2h-2h-2h-1h-2h-2h-2h-1h-9q-56 166 -99 305l-168 549q-22 -82 -69 -262q-12 -44 -119 -422l-43 -170h-141h-111z " />
<glyph unicode="O" horiz-adv-x="1079" d="M0 219q-1 10 0 21q0 83 31 186q14 52 34.5 136.5t63.5 236.5q84 287 96 327q33 120 144.5 213t236.5 93h154q62 0 112.5 -18.5t87.5 -59.5q38 -40 46 -103q2 -18 2 -38q0 -50 -15 -113q-14 -54 -85.5 -337t-110.5 -411q-48 -168 -160 -259.5t-279 -92.5q-70 0 -98.5 1 t-72.5 7.5t-72 22t-56 43.5q-55 54 -59 145zM272 369q-7 -26 -7 -46q0 -28 13 -48q22 -33 64 -33h43q125 0 164 139q24 87 84 319q19 75 41.5 164t35 139t17.5 74q5 17 5 35v8q-2 22 -8.5 41t-31 31t-63.5 12q-77 0 -115 -35.5t-59 -103.5q-16 -49 -76 -281 q-28 -103 -63 -242.5t-44 -172.5z" />
<glyph unicode="P" horiz-adv-x="1316" d="M0 0q55 213 121 451q87 306 215 788q49 184 49 186q7 7 10 7h16t39.5 0.5t54 1t66.5 0.5h70h203q114 0 176.5 -62t62.5 -149q0 -30 -4 -64.5t-13 -75.5t-15 -67.5t-19 -74t-16 -60.5q-40 -146 -174.5 -250.5t-311.5 -104.5h-141q-10 -33 -51 -180l-94 -346h-125h-119z M463 778h98q81 0 134.5 37.5t72.5 104.5q16 61 31 114q7 27 7 50q0 35 -16 62q-28 44 -104 44h-115z" />
<glyph unicode="Q" horiz-adv-x="1275" d="M2 222q-1 8 -1 16q0 85 32 190q14 55 24 98.5t23.5 95.5t48.5 171q25 87 40.5 141.5t20 69.5t12.5 43.5t23 80.5q35 119 146.5 212.5t236.5 93.5h68h110q62 0 113 -18.5t88.5 -59t46.5 -103.5q2 -18 2 -37q0 -51 -16 -114q-16 -62 -87 -341.5t-108 -406.5 q-30 -101 -82 -174q11 -25 39 -90.5t39 -91.5h-266q-2 5 -7 14.5t-7 14.5q-73 -25 -156 -25h-51q-98 0 -163 14.5t-112 59.5q-54 54 -57 146zM272 371q-7 -26 -7 -47q0 -27 12 -45q21 -32 63 -35q24 -2 45 -2q33 0 55 6q-56 123 -59 131q7 13 141 204l29 42q17 -34 55 -127 q5 19 12 45t18.5 70.5t20.5 80.5q84 327 97 385q5 17 5 35q0 4 -1 8q-1 23 -8 41.5t-31.5 30.5t-63.5 12h-43q-67 -4 -101.5 -39t-55.5 -100q-10 -31 -18 -60t-24.5 -94t-35.5 -135q-28 -103 -62 -238.5t-43 -168.5zM551 625v2v-2z" />
<glyph unicode="R" horiz-adv-x="1169" d="M0 2l375 1434h495q52 0 93.5 -13.5t67 -37t41.5 -53.5t22 -64q5 -29 5 -58v-10q-1 -33 -9 -65q-39 -170 -64 -258q-55 -206 -246 -287q33 -121 74 -277l80 -313h-299q-45 166 -82 307l-61 232q-35 -2 -82 -2l-144 -535q-47 0 -143 -2q-32 -1 -55 -1q-10 1 -20 1 q-28 0 -38 1zM471 793h145q54 0 96 33.5t54 80.5q20 72 41 160q3 24 3 51t-23 49.5t-66 22.5l-146 -2q-4 -17 -20 -80q-6 -25 -18 -69.5t-31.5 -116.5t-34.5 -129z" />
<glyph unicode="S" horiz-adv-x="1267" d="M0 236q2 26 10 64t15.5 65t7.5 28q3 6 6 6h246q9 0 6 -10q-14 -41 -14 -73q0 -11 2 -21q5 -31 37 -47q23 -12 58 -11q13 0 29 1q109 11 148 133q6 21 37 139q4 16 4 31q0 23 -10 43q-16 32 -50 51q-14 8 -141 70q-54 25 -75.5 37t-45 35t-41.5 59q-16 35 -16 86 q0 63 25 151q6 27 17.5 61t40.5 86.5t64 84.5q72 64 135 91t169 27h143q174 0 221 -123q6 -16 9 -35q3 -16 3 -33q0 -3 -1 -5q0 -19 -1.5 -37.5t-4.5 -35t-5.5 -28.5t-5.5 -22l-2 -10q-6 -17 -10 -17h-123h-119q-7 0 -4 6q5 22 5 39q0 60 -64 66q-20 2 -48 2q-77 0 -113 -33 t-50 -88q-8 -32 -8 -56q0 -47 32 -63q27 -16 213 -100q105 -44 133 -116q13 -33 13 -79q0 -52 -17 -120q-28 -103 -78 -256q-15 -47 -36 -84.5t-48.5 -64.5t-49 -43t-54.5 -36q-84 -51 -260 -51h-32h-25h-16q-12 0 -41.5 2t-48 6.5t-42.5 12.5t-43 20q-52 32 -72 87 q-16 44 -15 86q0 11 1 22z" />
<glyph unicode="T" horiz-adv-x="1218" d="M6 1203q6 21 15 55.5t16 60.5q21 92 26 108q0 7 11 7q106 0 286 2q50 0 131 -0.5t160.5 -1t152 -1t119.5 -1t48 -0.5q11 0 11 -7q0 -2 -1 -6t-5.5 -21.5t-13 -50t-16.5 -61.5q-32 -115 -33 -117q-3 -6 -6 -6h-307q-4 0 -4 -4q0 -1 -11 -42.5t-33 -126.5t-42 -167 q-18 -71 -61.5 -233t-67.5 -260l-88 -330h-131h-37t-38 0.5t-33 1t-24 0.5h-10v4q3 13 25.5 95t55.5 206t63 242q29 114 69.5 272t64.5 251.5t24 94.5q0 2 -3 2h-313q-6 0 -6 6q-1 2 6 28zM2 1169zM901 1163h6h-6z" />
<glyph unicode="U" horiz-adv-x="1247" d="M6 181q-3 19 -3 40q0 49 15 111q130 481 291 1102q1 0 58.5 0.5t114.5 0.5t87 -1q-160 -592 -184 -691q-83 -322 -94 -374q-6 -21 -4.5 -43t8 -41t31 -31t63.5 -12h57q75 1 113 36.5t59 102.5q7 23 76 278q187 691 207 775q70 2 134.5 2t121.5 -2q-14 -59 -91.5 -346 t-121.5 -443q-68 -233 -100 -340q-33 -120 -144.5 -212.5t-238.5 -92.5h-207q-62 0 -113 18.5t-88.5 59t-46.5 103.5z" />
<glyph unicode="V" horiz-adv-x="1148" d="M14 -2q-5 184 -5 368q0 220 7 439q5 178 8.5 335.5t3.5 225.5l1 68h295q0 -80 -8 -313t-9 -285l-10 -301l463 897h287l-766 -1434h-267z" />
<glyph unicode="W" horiz-adv-x="1583" d="M10 2q0 36 88 817l70 608q8 0 141 1.5t144 1.5q-15 -171 -33 -318l-53 -373l335 691q2 0 50.5 -1t103 -1.5t68.5 -0.5q4 0 4 -18q0 -31 -31 -356l-33 -332q145 310 211 453l121 258h289q-175 -365 -273 -568q-131 -269 -299 -628l-114 -236q-140 2 -195 2h-84q-8 0 -8 8 q0 23 8 105q2 14 15.5 138.5t23.5 201.5l19 174q-134 -275 -193 -396l-115 -231h-1h-1h-1h-1h-1h-1h-1h-1h-1h-1h-1h-1h-1h-1h-1h-1h-1h-1h-1h-1h-1h-1h-1h-1h-1h-1h-1h-1h-1h-1h-1h-1h-1h-1h-1h-1h-1h-1h-1h-1h-1h-1h-1h-1h-1h-1h-1h-2h-1h-1h-1h-1h-1h-1h-1h-1h-1h-2h-1 h-1h-1h-1h-1h-2h-1h-1h-1h-1h-2h-1h-1h-1h-2h-1h-1h-2h-1h-1h-1h-2h-1h-1h-2h-1h-1h-2h-1h-1h-2h-1h-1h-2h-1h-2h-1h-1h-2h-1h-2h-1h-2h-1h-1h-2h-1h-2h-1h-2h-1h-2h-1h-2h-1h-2h-1h-2h-1h-2h-1h-2h-2h-1h-2h-1h-2h-1h-2h-2h-1h-2h-1h-2h-2h-1h-2h-1h-2h-2h-1h-2h-2h-1h-2 h-2h-1h-2h-2h-1h-2h-2h-2h-1h-2h-2h-1h-2h-2h-2h-1h-2h-2h-2h-1h-2h-2h-2h-2h-1h-2h-2h-2h-2h-1h-2h-2h-2h-2h-2h-1h-2h-2h-2h-2h-8z" />
<glyph unicode="X" horiz-adv-x="1449" d="M2 0q53 74 141 199q169 239 267 379q24 34 69.5 101t50.5 75q-2 19 -24 176q-16 87 -62 379q-8 39 -20 123h262q22 -137 27 -164l41 -267q169 222 237 312q83 109 90 119h273q-14 -18 -51.5 -65.5t-47.5 -61.5q-41 -55 -111.5 -146t-86.5 -112q-22 -30 -172 -226 q-10 -13 -29 -35.5t-25 -31.5q1 -4 6.5 -28t10.5 -42q8 -37 25 -108.5t26 -114.5l107 -461h-162h-109q-27 107 -45 195l-72 309q-133 -190 -184 -264l-166 -240h-135h-131z" />
<glyph unicode="Y" horiz-adv-x="1157" d="M8 0q47 180 92 356l78 293q-14 121 -28 199q-5 31 -28 170t-34 209l-35 205h131h135q54 -360 78 -512q172 221 240 311l154 199h110l162 2q-92 -117 -164 -209q-35 -46 -101 -131.5t-96 -126.5q-36 -48 -142.5 -186t-117.5 -152q-42 -145 -73 -258l-103 -369h-125h-133z " />
<glyph unicode="Z" horiz-adv-x="1243" d="M2 4q0 14 23 115q12 54 32 131l742 917q-228 0 -496 -2q15 52 32.5 112t27 95t10.5 37q4 21 22 21q1 0 42 0.5t109.5 1t137.5 0.5q88 0 178 -1t123 -1h174q-2 -6 -26.5 -111.5t-38.5 -138.5l-756 -932q6 0 111 -1t151 -1h236l-64 -246h-766q-4 0 -4 4z" />
<glyph unicode="[" horiz-adv-x="978" d="M6 -231q258 939 301 1097l213 799l385 -2q-3 -11 -11.5 -45t-23 -93t-28.5 -112h-135q-39 -155 -68 -258q-11 -42 -133 -485.5t-178 -649.5h131l4 -6q-3 -13 -10.5 -44.5t-22.5 -90t-27 -108.5q-21 0 -65 -1t-66 -1h-14h-252z" />
<glyph unicode="\" horiz-adv-x="749" d="M6 1432h287q73 -330 100 -441q16 -61 74.5 -299.5t79.5 -320.5l98 -375h-285q-51 174 -71 268q-9 40 -83.5 341.5t-96.5 395.5q-18 83 -44 190.5t-43 174.5z" />
<glyph unicode="]" horiz-adv-x="1026" d="M14 -227q3 13 11 46t23.5 92.5t27.5 108.5q22 0 67 1.5t68 1.5q12 46 36.5 139t31.5 119q25 90 145.5 528.5t165.5 603.5l-135 2q-4 0 0 4q0 2 20.5 86t40.5 160q96 0 397 2q-260 -940 -303 -1098l-213 -798z" />
<glyph unicode="^" horiz-adv-x="774" d="M8 616l438 818h224q-1 -120 1.5 -415t-1.5 -403q-48 -1 -120 0t-120 0l10 306l-157 -304q-46 -2 -275 -2z" />
<glyph unicode="_" horiz-adv-x="1011" d="M0 -762l63 250q22 1 60 2t138.5 2t182.5 0q74 0 480 -4l-70 -252q-71 0 -163 1t-101 1h-590zM428 -762h76h-76z" />
<glyph unicode="`" horiz-adv-x="442" d="M6 1300q71 3 137 3q21 0 61 -1.5t62 -1.5q63 -229 78 -274h-205q-82 139 -133 274z" />
<glyph unicode="a" horiz-adv-x="1157" d="M4 0q98 181 219 408q54 101 192 352t251.5 455.5t113.5 205.5q4 9 15 9h256q6 0 6 -11q0 -209 -4 -342q-2 -56 -11 -606q-2 -105 -6 -221t-7 -180l-3 -64q-133 -2 -190 -2l-97 -2l1 18l12 254q-84 0 -172 -2l-142 -2q-151 -260 -153 -264q-6 -6 -9 -6h-272zM573 516 q98 2 172 2q1 16 5 82l12 268q-60 -112 -111 -206z" />
<glyph unicode="b" horiz-adv-x="1187" d="M0 8q0 2 190 699t193 706q5 17 20 17h471q122 0 184 -85q45 -61 44 -134q0 -28 -6 -58q-6 -23 -14 -56.5t-11 -45t-8 -30t-8 -28t-8 -22.5t-11 -29q-54 -135 -162 -192q2 -1 5 -4t12 -13t16.5 -21t15 -29t11.5 -37t4 -44.5t-8 -52.5q-14 -53 -34.5 -130t-37.5 -138 q-13 -45 -42.5 -90.5t-77.5 -89t-123 -70.5t-164 -27h-449q-2 0 -2 4zM336 250h117q67 0 114.5 38t65.5 99l22 84q8 29 8 52q0 37 -20 59q-32 36 -94 36h-107zM518 872q44 -2 105 -2q82 0 139 45q46 36 63 111q7 25 10 38q2 10 2 26v11q-1 24 -10 46q-21 47 -106 47 q-15 0 -40 0.5t-44.5 1t-20.5 0.5q-8 0 -12 -8z" />
<glyph unicode="c" horiz-adv-x="1122" d="M3 221v19q0 84 30 186q21 78 42 158t58 219q66 245 90 325q35 119 145.5 211.5t235.5 92.5h66h80h41q62 0 112.5 -19t87.5 -59t45 -102q2 -18 3 -39q0 -50 -15 -111v-2h-264q2 14 2 26q0 80 -100 80h-41q-74 -1 -111.5 -37t-58.5 -102q-4 -14 -74 -274 q-61 -226 -103 -424q-5 -26 -5 -46q0 -47 28 -65q23 -15 49 -20q27 -2 50 -2q62 0 91 16q71 38 93 115h256q0 -5 -5 -15q-48 -166 -159.5 -257.5t-276.5 -92.5h-110q-78 2 -129.5 17t-94.5 57q-54 54 -58 145z" />
<glyph unicode="d" horiz-adv-x="1177" d="M8 2q47 193 96 375l291 1048q230 2 441 2h7q161 0 227 -97q37 -54 37 -143q0 -74 -26 -173q-41 -156 -85 -315t-81 -298q-57 -208 -168.5 -303.5t-277.5 -95.5h-285h-176zM258 2h207h-160h-47zM322 250h159q131 0 174 143q16 51 68 230q18 61 60.5 215t52.5 190 q6 23 6 43q0 37 -19 67q-28 46 -93 46h-3h-145q-135 -473 -168 -590z" />
<glyph unicode="e" horiz-adv-x="1228" d="M0 2q11 47 27 117q12 54 88 332q18 70 64.5 254t62.5 241q119 426 125 457q7 20 24 20q16 0 285.5 1t300.5 1h174q-35 -147 -53 -215q-9 -32 -13 -36l-1 -2q-2 -3 -3.5 -4t-5.5 -1l-51 -1q-51 -1 -125 -2t-129 -1h-182q-5 0 -8 -6q-1 -3 -7.5 -29.5t-16.5 -65t-17 -65.5 l-31 -123q31 1 72 1t92 -1q100 -2 223 -2q3 0 0 -6q-4 -13 -37 -141q-34 -120 -37 -123q0 -2 -16 -2q-4 0 -34.5 -0.5t-74 -1t-78.5 -0.5h-184l-94 -350q119 -4 260 -4h236l-64 -244q-91 1 -182 1l-182 -1h-93h-163q-148 2 -152 2zM565 0h197h-197z" />
<glyph unicode="f" horiz-adv-x="1216" d="M0 2q49 186 96 352q21 78 66 253t69 263q27 95 61 225t42 158q9 34 21 77t17 62t7 23q2 12 6 12h387h367q-9 -33 -23 -94l-37 -145q-190 0 -325 2l-170 4q-39 -139 -62 -213l-30 -113h395q-5 -24 -19 -77l-51 -181q-196 -2 -274 -2h-131q-21 -69 -70 -243l-100 -363h-242 z" />
<glyph unicode="g" horiz-adv-x="1148" d="M7 223q-1 11 -1 23q0 82 31 182q14 53 34.5 138t63.5 237q75 254 94 321q35 118 145.5 210t237.5 96q50 1 97 1t92 -1q62 -2 112 -21t87.5 -58.5t45.5 -101.5q3 -18 3 -38q0 -50 -15 -113q-3 -9 -8 -29.5t-8 -30.5h-260q2 7 8 37q5 26 5.5 45t-7 39.5t-31.5 31.5t-63 11 h-41q-74 -1 -111.5 -36.5t-58.5 -102.5q-15 -44 -74 -277q-28 -104 -63 -245t-43 -170q-6 -23 -6 -42q0 -32 16 -53q21 -27 61 -30q15 -3 48 -3q12 0 27 1q54 1 75 12q64 26 90 127q4 16 14 52t14 54h-172q5 19 19 74l45 166h285l141 -4q-55 -224 -96 -371 q-48 -168 -160.5 -259t-280.5 -91h-110q-78 0 -129 15.5t-94 58.5q-54 54 -59 145z" />
<glyph unicode="h" horiz-adv-x="1339" d="M0 0q15 55 31 125q12 54 82 319q23 84 70.5 268t60.5 232q11 39 44.5 161t59 216t27.5 98q3 13 14 13h256l4 -2q0 -1 -27 -97t-56 -202.5t-36 -135.5l-30 -123h342q25 92 56.5 212.5t41.5 158.5t21.5 81.5t18 68t7.5 28.5q5 11 8 11h258q-55 -212 -92 -345 q0 -1 -46 -175.5t-103 -387t-80 -293.5l-68 -233l-254 2q48 186 95 354q51 197 61 240h-156h-184l-158 -594h-268z" />
<glyph unicode="i" horiz-adv-x="749" d="M0 0q57 205 106 387l291 1047h252q-200 -717 -231 -832l-164 -602h-254z" />
<glyph unicode="j" horiz-adv-x="927" d="M0 4l63 232q6 -1 15 -1q19 0 53 3q109 11 148 133q4 12 8 32q30 118 67 250l213 781h254q-118 -441 -151 -560q-17 -57 -57 -204t-72 -267.5t-33 -126.5q-25 -73 -75.5 -127.5t-102 -81.5t-112.5 -43.5t-95 -20t-60 -3.5q-38 0 -63 4z" />
<glyph unicode="k" horiz-adv-x="1306" d="M2 2q19 72 70 262q16 62 202 754l111 416l277 -2q-39 -144 -72 -267l-53 -196q140 161 251 282q50 54 90 99t55 64l15 18q50 0 105 -2l176 -3q-266 -304 -481 -548q-8 -9 -25 -28t-25 -28q83 -373 99 -452l75 -369h-294q-39 180 -70 354q-25 139 -39 203l-70 -82 q-16 -55 -51 -186l-78 -287q-117 0 -178 -2h-90z" />
<glyph unicode="l" horiz-adv-x="923" d="M0 0q168 667 240 940l129 494h284q-120 -452 -192 -711q-31 -116 -60.5 -232.5t-42.5 -175.5l-14 -59q34 1 69 1q70 0 146 -3l281 -2q-13 -52 -27 -111l-37 -141q-70 1 -144.5 1t-152.5 -1h-299h-180z" />
<glyph unicode="m" horiz-adv-x="1607" d="M2 0q39 140 100 373q44 169 232 833l59 221q41 3 135 3h140q20 -84 67 -234l78 -238q123 134 217 238q42 46 92.5 104.5t80.5 93.5l30 36h258q-45 -187 -88 -347l-279 -1083h-1h-1h-1h-1h-1h-1h-1h-1h-1h-1h-1h-1h-1h-1h-1h-1h-1h-1h-1h-1h-1h-1h-1h-1h-1h-1h-1h-1h-1h-1 h-1h-1h-1h-1h-1h-1h-1h-1h-1h-1h-1h-1h-1h-1h-1h-1h-1h-2h-1h-1h-1h-1h-1h-1h-1h-1h-2h-1h-1h-1h-1h-2h-1h-1h-1h-1h-2h-1h-1h-1h-2h-1h-1h-2h-1h-1h-2h-1h-1h-2h-1h-1h-2h-1h-1h-2h-1h-2h-1h-1h-2h-1h-2h-1h-2h-1h-1h-2h-1h-2h-1h-2h-1h-2h-1h-2h-1h-2h-2h-1h-2h-1h-2h-1 h-2h-2h-1h-2h-1h-2h-2h-1h-2h-2h-1h-2h-2h-1h-2h-2h-1h-2h-2h-2h-1h-2h-2h-1h-2h-2h-2h-2h-1h-2h-2h-2h-2h-1h-2h-2h-2h-2h-2h-1h-2h-2h-2h-2h-2h-2h-2h-2h-2h-2h-2h-2h-2h-2h-2h-2h-2h-2h-2h-2h-2h-2h-2h-3h-2h-2h-2h-2h-3h-2h-2h-3h-2h-9q10 43 53 223l162 629 q-100 -102 -213 -223l-174 -178l-160 399q-41 -147 -88 -311l-150 -541h-92z" />
<glyph unicode="n" horiz-adv-x="1609" d="M2 -2q86 312 188 684l207 748q48 -3 140 -3h100q29 -94 70 -227q49 -152 86 -291l90 -315q37 121 80 283l153 553h154l119 -3q-19 -63 -60 -215q-19 -73 -164 -587l-176 -627h1h-1h-1h-1h-1h-1h-1h-1h-1h-1h-1h-1h-1h-1h-1h-1h-1h-1h-1h-1h-1h-1h-1h-1h-1h-1h-1h-1h-1h-1 h-1h-1h-1h-1h-1h-1h-1h-1h-1h-1h-1h-1h-1h-1h-1h-1h-1h-1h-1h-1h-1h-2h-1h-1h-1h-1h-1h-1h-2h-1h-1h-1h-1h-2h-1h-1h-1h-1h-2h-1h-1h-1h-2h-1h-1h-2h-1h-1h-2h-1h-1h-1h-2h-1h-2h-1h-1h-2h-1h-1h-2h-1h-2h-1h-1h-2h-1h-2h-1h-2h-1h-2h-1h-1h-2h-1h-2h-1h-2h-1h-2h-1h-2h-2 h-1h-2h-1h-2h-1h-2h-1h-2h-2h-1h-2h-1h-2h-1h-2h-2h-1h-2h-2h-1h-2h-1h-2h-2h-1h-2h-2h-1h-2h-2h-1h-2h-2h-2h-1h-2h-2h-1h-2h-2h-2h-1h-2h-2h-1h-2h-2h-2h-1h-2h-2h-2h-1h-2h-2h-2h-1h-9q-56 166 -99 305l-168 549q-22 -82 -69 -262q-12 -44 -119 -422l-43 -170h-141h-111z " />
<glyph unicode="o" horiz-adv-x="1079" d="M0 219q-1 10 0 21q0 83 31 186q14 52 34.5 136.5t63.5 236.5q84 287 96 327q33 120 144.5 213t236.5 93h154q62 0 112.5 -18.5t87.5 -59.5q38 -40 46 -103q2 -18 2 -38q0 -50 -15 -113q-14 -54 -85.5 -337t-110.5 -411q-48 -168 -160 -259.5t-279 -92.5q-70 0 -98.5 1 t-72.5 7.5t-72 22t-56 43.5q-55 54 -59 145zM272 369q-7 -26 -7 -46q0 -28 13 -48q22 -33 64 -33h43q125 0 164 139q24 87 84 319q19 75 41.5 164t35 139t17.5 74q5 17 5 35v8q-2 22 -8.5 41t-31 31t-63.5 12q-77 0 -115 -35.5t-59 -103.5q-16 -49 -76 -281 q-28 -103 -63 -242.5t-44 -172.5z" />
<glyph unicode="p" horiz-adv-x="1316" d="M0 0q55 213 121 451q87 306 215 788q49 184 49 186q7 7 10 7h16t39.5 0.5t54 1t66.5 0.5h70h203q114 0 176.5 -62t62.5 -149q0 -30 -4 -64.5t-13 -75.5t-15 -67.5t-19 -74t-16 -60.5q-40 -146 -174.5 -250.5t-311.5 -104.5h-141q-10 -33 -51 -180l-94 -346h-125h-119z M463 778h98q81 0 134.5 37.5t72.5 104.5q16 61 31 114q7 27 7 50q0 35 -16 62q-28 44 -104 44h-115z" />
<glyph unicode="q" horiz-adv-x="1275" d="M2 222q-1 8 -1 16q0 85 32 190q14 55 24 98.5t23.5 95.5t48.5 171q25 87 40.5 141.5t20 69.5t12.5 43.5t23 80.5q35 119 146.5 212.5t236.5 93.5h68h110q62 0 113 -18.5t88.5 -59t46.5 -103.5q2 -18 2 -37q0 -51 -16 -114q-16 -62 -87 -341.5t-108 -406.5 q-30 -101 -82 -174q11 -25 39 -90.5t39 -91.5h-266q-2 5 -7 14.5t-7 14.5q-73 -25 -156 -25h-51q-98 0 -163 14.5t-112 59.5q-54 54 -57 146zM272 371q-7 -26 -7 -47q0 -27 12 -45q21 -32 63 -35q24 -2 45 -2q33 0 55 6q-56 123 -59 131q7 13 141 204l29 42q17 -34 55 -127 q5 19 12 45t18.5 70.5t20.5 80.5q84 327 97 385q5 17 5 35q0 4 -1 8q-1 23 -8 41.5t-31.5 30.5t-63.5 12h-43q-67 -4 -101.5 -39t-55.5 -100q-10 -31 -18 -60t-24.5 -94t-35.5 -135q-28 -103 -62 -238.5t-43 -168.5zM551 625v2v-2z" />
<glyph unicode="r" horiz-adv-x="1169" d="M0 2l375 1434h495q52 0 93.5 -13.5t67 -37t41.5 -53.5t22 -64q5 -29 5 -58v-10q-1 -33 -9 -65q-39 -170 -64 -258q-55 -206 -246 -287q33 -121 74 -277l80 -313h-299q-45 166 -82 307l-61 232q-35 -2 -82 -2l-144 -535q-47 0 -143 -2q-32 -1 -55 -1q-10 1 -20 1 q-28 0 -38 1zM471 793h145q54 0 96 33.5t54 80.5q20 72 41 160q3 24 3 51t-23 49.5t-66 22.5l-146 -2q-4 -17 -20 -80q-6 -25 -18 -69.5t-31.5 -116.5t-34.5 -129z" />
<glyph unicode="s" horiz-adv-x="1267" d="M0 236q2 26 10 64t15.5 65t7.5 28q3 6 6 6h246q9 0 6 -10q-14 -41 -14 -73q0 -11 2 -21q5 -31 37 -47q23 -12 58 -11q13 0 29 1q109 11 148 133q6 21 37 139q4 16 4 31q0 23 -10 43q-16 32 -50 51q-14 8 -141 70q-54 25 -75.5 37t-45 35t-41.5 59q-16 35 -16 86 q0 63 25 151q6 27 17.5 61t40.5 86.5t64 84.5q72 64 135 91t169 27h143q174 0 221 -123q6 -16 9 -35q3 -16 3 -33q0 -3 -1 -5q0 -19 -1.5 -37.5t-4.5 -35t-5.5 -28.5t-5.5 -22l-2 -10q-6 -17 -10 -17h-123h-119q-7 0 -4 6q5 22 5 39q0 60 -64 66q-20 2 -48 2q-77 0 -113 -33 t-50 -88q-8 -32 -8 -56q0 -47 32 -63q27 -16 213 -100q105 -44 133 -116q13 -33 13 -79q0 -52 -17 -120q-28 -103 -78 -256q-15 -47 -36 -84.5t-48.5 -64.5t-49 -43t-54.5 -36q-84 -51 -260 -51h-32h-25h-16q-12 0 -41.5 2t-48 6.5t-42.5 12.5t-43 20q-52 32 -72 87 q-16 44 -15 86q0 11 1 22z" />
<glyph unicode="t" horiz-adv-x="1218" d="M6 1203q6 21 15 55.5t16 60.5q21 92 26 108q0 7 11 7q106 0 286 2q50 0 131 -0.5t160.5 -1t152 -1t119.5 -1t48 -0.5q11 0 11 -7q0 -2 -1 -6t-5.5 -21.5t-13 -50t-16.5 -61.5q-32 -115 -33 -117q-3 -6 -6 -6h-307q-4 0 -4 -4q0 -1 -11 -42.5t-33 -126.5t-42 -167 q-18 -71 -61.5 -233t-67.5 -260l-88 -330h-131h-37t-38 0.5t-33 1t-24 0.5h-10v4q3 13 25.5 95t55.5 206t63 242q29 114 69.5 272t64.5 251.5t24 94.5q0 2 -3 2h-313q-6 0 -6 6q-1 2 6 28zM2 1169zM901 1163h6h-6z" />
<glyph unicode="u" horiz-adv-x="1247" d="M6 181q-3 19 -3 40q0 49 15 111q130 481 291 1102q1 0 58.5 0.5t114.5 0.5t87 -1q-160 -592 -184 -691q-83 -322 -94 -374q-6 -21 -4.5 -43t8 -41t31 -31t63.5 -12h57q75 1 113 36.5t59 102.5q7 23 76 278q187 691 207 775q70 2 134.5 2t121.5 -2q-14 -59 -91.5 -346 t-121.5 -443q-68 -233 -100 -340q-33 -120 -144.5 -212.5t-238.5 -92.5h-207q-62 0 -113 18.5t-88.5 59t-46.5 103.5z" />
<glyph unicode="v" horiz-adv-x="1148" d="M14 -2q-5 184 -5 368q0 220 7 439q5 178 8.5 335.5t3.5 225.5l1 68h295q0 -80 -8 -313t-9 -285l-10 -301l463 897h287l-766 -1434h-267z" />
<glyph unicode="w" horiz-adv-x="1587" d="M10 6q0 32 88 813l70 608q88 3 147 3h138q-15 -171 -33 -318l-53 -373l335 691h166q52 0 58 -3q2 -1 2 -14q0 -35 -31 -360l-33 -332q145 310 211 453l121 258h289q-175 -365 -273 -568q-131 -269 -299 -628l-114 -236q-140 2 -195 2h-84q-8 0 -8 8q0 23 8 105 q2 14 15.5 138.5t23.5 201.5l19 174q-134 -275 -193 -396l-115 -231q-80 2 -139 2h-117q-4 0 -4 2zM12 4h2h-2zM20 4h13h-13zM113 0h4h-2h-2zM309 1430h2h4h-6z" />
<glyph unicode="x" horiz-adv-x="1390" d="M2 0q53 74 141 199q169 239 267 379q24 34 69.5 101t50.5 75q-2 19 -24 176q-16 87 -62 379q-8 39 -20 123h262q22 -137 27 -164l41 -267q169 222 237 312q83 109 90 119h273q-14 -18 -51.5 -65.5t-47.5 -61.5q-41 -55 -111.5 -146t-86.5 -112q-22 -30 -172 -226 q-10 -13 -29 -35.5t-25 -31.5q1 -4 6.5 -28t10.5 -42q8 -37 25 -108.5t26 -114.5q9 -44 29.5 -131.5t29.5 -126.5l48 -203h-162h-109q-27 107 -45 195l-72 309q-133 -190 -184 -264l-166 -240h-135h-131z" />
<glyph unicode="y" horiz-adv-x="1103" d="M8 0q47 180 92 356l78 293q-14 121 -28 199q-5 31 -28 170t-34 209l-35 205h131h135q25 -172 37 -246l41 -266q172 221 240 311l154 199h110l162 2q-92 -117 -164 -209q-35 -46 -101 -131.5t-96 -126.5q-36 -48 -174 -224l-86 -114q-42 -145 -73 -258l-103 -369h-125 h-133z" />
<glyph unicode="z" horiz-adv-x="1220" d="M-2 4q0 1 3 14t10 42t14 59q12 54 32 131l742 917h-207q-193 -2 -289 -2q15 52 32.5 112t27 95t10.5 37q4 21 22 21q1 0 42 1t109.5 1h137.5q88 0 178 -1t123 -1h174q-37 -145 -53 -213q-7 -27 -12 -37l-756 -932q6 0 111 -1t151 -1h236l-64 -246h-772z" />
<glyph unicode="{" horiz-adv-x="808" d="M22.5 -114.5q-31.5 77.5 0.5 198.5q5 18 45 172t63 244q22 73 12.5 107t-59.5 40l51 195q38 0 66 23t49 89q88 332 102 379q42 148 134 237t229 111q0 -124 -10 -249q-76 -27 -103 -127q-10 -37 -47.5 -180.5t-60.5 -229.5q-14 -55 -49 -97.5t-89 -49.5q-2 -3 0 -3 q15 -1 32.5 -14t32 -44t-0.5 -81q-109 -402 -127 -502q-17 -74 16 -102q-34 -44 -96 -122.5t-82 -104.5q-77 33 -108.5 110.5z" />
<glyph unicode="|" horiz-adv-x="864" d="M0 0q65 264 131 510l383 1382l252 -2q-260 -935 -303 -1093l-215 -797h-248z" />
<glyph unicode="}" horiz-adv-x="829" d="M6 -256q0 123 10 248q75 26 103 129q11 38 54 200.5t65 243.5q14 57 48 99.5t89 50.5q2 0 0 2q-11 1 -24 8t-27.5 23.5t-18 42.5t5.5 65q108 414 117 463q16 72 -16 102q21 28 178 230q77 -35 108.5 -113t-0.5 -199q-74 -280 -98 -376q-22 -73 -12.5 -107.5t59.5 -40.5 l-53 -197q-36 0 -64 -23t-49 -87q-100 -378 -112 -418q-42 -148 -134 -237t-229 -109z" />
<glyph unicode="~" horiz-adv-x="1093" d="M8 838q91 59 158 82.5t143 23.5q60 0 110.5 -15t117.5 -48q92 -47 163 -47q49 0 93 17t116 69l2 -2l56 -222q-105 -72 -178.5 -99.5t-155.5 -27.5q-60 0 -111 15.5t-119 48.5q-92 47 -161 47q-42 0 -80.5 -13t-95.5 -51z" />
<glyph unicode="&#xa1;" horiz-adv-x="731" d="M6 0q178 688 246 936q9 34 20 73.5t17 61.5q42 0 127.5 -1t128.5 -1q-97 -348 -115 -424l-168 -645h-256zM322 1196l69 240h254q-26 -91 -65 -236q-172 -4 -258 -4z" />
<glyph unicode="&#xa2;" horiz-adv-x="710" d="M3.5 911q3.5 25 14.5 72q6 23 12.5 45t8.5 29q18 61 24.5 83.5t11.5 40.5l15 54q22 75 85 135t142 64q7 20 17 63q15 0 43.5 0.5t54 0.5t49.5 -1q-14 -52 -16 -63q76 -3 110.5 -58t6.5 -157q-2 -8 -7 -23q-44 -2 -107 -1t-79 3q5 22 6 27q4 20 -9 31.5t-32 11.5 q-25 0 -41.5 -6.5t-27 -23.5t-14.5 -28t-11 -41t-10 -41q-30 -112 -43 -157q-7 -29 9.5 -41t41.5 -12t45 13t25 32l10 36q26 0 89 -2.5t97 -1.5l-6 -24q-62 -211 -242 -226l-14 -53h-69h-74q2 9 4.5 18.5t4.5 18t5 21.5q-65 10 -98 43q-23 23 -29 58t-2.5 60z" />
<glyph unicode="&#xa3;" horiz-adv-x="1366" d="M2 0q11 47 29 117q8 38 86 323q5 18 19 70.5t22 81.5h-56l72 268q7 0 22 0.5t28 1.5h12l18 74q14 47 24.5 87t28.5 101q35 120 147.5 214t237.5 94h68h123q63 0 114.5 -19t88.5 -59.5t45.5 -104.5t-13.5 -153h-266q6 47 -14 76.5t-86 29.5h-41q-76 -1 -114.5 -37 t-57.5 -102q-8 -27 -24.5 -82t-33.5 -119q55 0 179.5 -1t205.5 -1q5 0 7 -1.5t1 -4.5l-34 -135q-34 -120 -37 -123q0 -2 -17 -2q-4 0 -35 -0.5t-74.5 -1t-78.5 -0.5l-186 -2l-93 -340q120 -4 263 -4h305l-64 -250q-252 2 -436 2q-109 -1 -244 0.5t-141 1.5z" />
<glyph unicode="&#xa4;" d="M6 754q0 159 113 272t272 113t272 -113t113 -272q0 -160 -112.5 -272.5t-272.5 -112.5t-272.5 112.5t-112.5 272.5zM246 727q-3 -8 8 -8h27h71h7.5t5.5 -1t4 -3t0 -6q-2 -17 -13 -83.5t-22 -130t-12 -67.5q208 375 213 389q6 12 -5 12l-67 1q-67 1 -78 1q-6 1 -6 5 q1 8 15 123.5t14 117.5q0 4 -2 0q-2 -5 -42.5 -93t-79 -172t-38.5 -85z" />
<glyph unicode="&#xa5;" horiz-adv-x="1280" d="M10 389l68 248q102 0 229 2q7 17 -24 209l-29 174t-33 203l-35 205h131h136q24 -172 36 -244l41 -266q170 221 238 309l154 201q59 -3 110 -3l162 3q-92 -117 -164 -209q-22 -29 -92 -119.5t-104 -136.5q-18 -24 -175 -224q-47 -60 -75 -100h73q19 0 52 -1t116 -1 l-69 -252q-125 0 -252 2q-12 -49 -39 -145.5t-47 -169.5l-21 -72h-125h-131l84 319q10 37 17 68h-232z" />
<glyph unicode="&#xa6;" d="M6 754q0 159 113 272t272 113t272 -113t113 -272q0 -160 -112.5 -272.5t-272.5 -112.5t-272.5 112.5t-112.5 272.5zM246 727q-3 -8 8 -8h27h71h7.5t5.5 -1t4 -3t0 -6q-2 -17 -13 -83.5t-22 -130t-12 -67.5q208 375 213 389q6 12 -5 12l-67 1q-67 1 -78 1q-6 1 -6 5 q1 8 15 123.5t14 117.5q0 4 -2 0q-2 -5 -42.5 -93t-79 -172t-38.5 -85z" />
<glyph unicode="&#xa7;" d="M6 754q0 159 113 272t272 113t272 -113t113 -272q0 -160 -112.5 -272.5t-272.5 -112.5t-272.5 112.5t-112.5 272.5zM246 727q-3 -8 8 -8h27h71h7.5t5.5 -1t4 -3t0 -6q-2 -17 -13 -83.5t-22 -130t-12 -67.5q208 375 213 389q6 12 -5 12l-67 1q-67 1 -78 1q-6 1 -6 5 q1 8 15 123.5t14 117.5q0 4 -2 0q-2 -5 -42.5 -93t-79 -172t-38.5 -85z" />
<glyph unicode="&#xa8;" d="M6 754q0 159 113 272t272 113t272 -113t113 -272q0 -160 -112.5 -272.5t-272.5 -112.5t-272.5 112.5t-112.5 272.5zM246 727q-3 -8 8 -8h27h71h7.5t5.5 -1t4 -3t0 -6q-2 -17 -13 -83.5t-22 -130t-12 -67.5q208 375 213 389q6 12 -5 12l-67 1q-67 1 -78 1q-6 1 -6 5 q1 8 15 123.5t14 117.5q0 4 -2 0q-2 -5 -42.5 -93t-79 -172t-38.5 -85z" />
<glyph unicode="&#xa9;" d="M6 754q0 159 113 272t272 113t272 -113t113 -272q0 -160 -112.5 -272.5t-272.5 -112.5t-272.5 112.5t-112.5 272.5zM246 727q-3 -8 8 -8h27h71h7.5t5.5 -1t4 -3t0 -6q-2 -17 -13 -83.5t-22 -130t-12 -67.5q208 375 213 389q6 12 -5 12l-67 1q-67 1 -78 1q-6 1 -6 5 q1 8 15 123.5t14 117.5q0 4 -2 0q-2 -5 -42.5 -93t-79 -172t-38.5 -85z" />
<glyph unicode="&#xaa;" d="M6 754q0 159 113 272t272 113t272 -113t113 -272q0 -160 -112.5 -272.5t-272.5 -112.5t-272.5 112.5t-112.5 272.5zM246 727q-3 -8 8 -8h27h71h7.5t5.5 -1t4 -3t0 -6q-2 -17 -13 -83.5t-22 -130t-12 -67.5q208 375 213 389q6 12 -5 12l-67 1q-67 1 -78 1q-6 1 -6 5 q1 8 15 123.5t14 117.5q0 4 -2 0q-2 -5 -42.5 -93t-79 -172t-38.5 -85z" />
<glyph unicode="&#xab;" d="M6 754q0 159 113 272t272 113t272 -113t113 -272q0 -160 -112.5 -272.5t-272.5 -112.5t-272.5 112.5t-112.5 272.5zM246 727q-3 -8 8 -8h27h71h7.5t5.5 -1t4 -3t0 -6q-2 -17 -13 -83.5t-22 -130t-12 -67.5q208 375 213 389q6 12 -5 12l-67 1q-67 1 -78 1q-6 1 -6 5 q1 8 15 123.5t14 117.5q0 4 -2 0q-2 -5 -42.5 -93t-79 -172t-38.5 -85z" />
<glyph unicode="&#xac;" d="M6 754q0 159 113 272t272 113t272 -113t113 -272q0 -160 -112.5 -272.5t-272.5 -112.5t-272.5 112.5t-112.5 272.5zM246 727q-3 -8 8 -8h27h71h7.5t5.5 -1t4 -3t0 -6q-2 -17 -13 -83.5t-22 -130t-12 -67.5q208 375 213 389q6 12 -5 12l-67 1q-67 1 -78 1q-6 1 -6 5 q1 8 15 123.5t14 117.5q0 4 -2 0q-2 -5 -42.5 -93t-79 -172t-38.5 -85z" />
<glyph unicode="&#xad;" horiz-adv-x="864" d="M2 614l68 248q88 3 312.5 4t391.5 -2l-67 -252q-73 2 -382.5 1.5t-322.5 0.5z" />
<glyph unicode="&#xae;" d="M6 754q0 159 113 272t272 113t272 -113t113 -272q0 -160 -112.5 -272.5t-272.5 -112.5t-272.5 112.5t-112.5 272.5zM246 727q-3 -8 8 -8h27h71h7.5t5.5 -1t4 -3t0 -6q-2 -17 -13 -83.5t-22 -130t-12 -67.5q208 375 213 389q6 12 -5 12l-67 1q-67 1 -78 1q-6 1 -6 5 q1 8 15 123.5t14 117.5q0 4 -2 0q-2 -5 -42.5 -93t-79 -172t-38.5 -85z" />
<glyph unicode="&#xb0;" horiz-adv-x="548" d="M4 1036v66q2 80 2 108q0 2 1 16.5t1 30.5q2 70 46 123.5t116 53.5h74q75 0 121.5 -48.5t46.5 -142.5v-219q-3 -196 -181 -199h-14q-50 0 -84.5 8t-69.5 35q-26 20 -39.5 51.5t-16 53.5t-3.5 63zM174 1014q0 -16 9 -25.5t26 -9.5q22 0 28.5 9t6.5 28v233q0 37 -33 37 q-20 0 -28.5 -8t-8.5 -29v-84v-71v-80z" />
<glyph unicode="&#xb1;" d="M6 754q0 159 113 272t272 113t272 -113t113 -272q0 -160 -112.5 -272.5t-272.5 -112.5t-272.5 112.5t-112.5 272.5zM246 727q-3 -8 8 -8h27h71h7.5t5.5 -1t4 -3t0 -6q-2 -17 -13 -83.5t-22 -130t-12 -67.5q208 375 213 389q6 12 -5 12l-67 1q-67 1 -78 1q-6 1 -6 5 q1 8 15 123.5t14 117.5q0 4 -2 0q-2 -5 -42.5 -93t-79 -172t-38.5 -85z" />
<glyph unicode="&#xb2;" d="M6 754q0 159 113 272t272 113t272 -113t113 -272q0 -160 -112.5 -272.5t-272.5 -112.5t-272.5 112.5t-112.5 272.5zM246 727q-3 -8 8 -8h27h71h7.5t5.5 -1t4 -3t0 -6q-2 -17 -13 -83.5t-22 -130t-12 -67.5q208 375 213 389q6 12 -5 12l-67 1q-67 1 -78 1q-6 1 -6 5 q1 8 15 123.5t14 117.5q0 4 -2 0q-2 -5 -42.5 -93t-79 -172t-38.5 -85z" />
<glyph unicode="&#xb3;" d="M6 754q0 159 113 272t272 113t272 -113t113 -272q0 -160 -112.5 -272.5t-272.5 -112.5t-272.5 112.5t-112.5 272.5zM246 727q-3 -8 8 -8h27h71h7.5t5.5 -1t4 -3t0 -6q-2 -17 -13 -83.5t-22 -130t-12 -67.5q208 375 213 389q6 12 -5 12l-67 1q-67 1 -78 1q-6 1 -6 5 q1 8 15 123.5t14 117.5q0 4 -2 0q-2 -5 -42.5 -93t-79 -172t-38.5 -85z" />
<glyph unicode="&#xb4;" d="M6 754q0 159 113 272t272 113t272 -113t113 -272q0 -160 -112.5 -272.5t-272.5 -112.5t-272.5 112.5t-112.5 272.5zM246 727q-3 -8 8 -8h27h71h7.5t5.5 -1t4 -3t0 -6q-2 -17 -13 -83.5t-22 -130t-12 -67.5q208 375 213 389q6 12 -5 12l-67 1q-67 1 -78 1q-6 1 -6 5 q1 8 15 123.5t14 117.5q0 4 -2 0q-2 -5 -42.5 -93t-79 -172t-38.5 -85z" />
<glyph unicode="&#xb6;" d="M6 754q0 159 113 272t272 113t272 -113t113 -272q0 -160 -112.5 -272.5t-272.5 -112.5t-272.5 112.5t-112.5 272.5zM246 727q-3 -8 8 -8h27h71h7.5t5.5 -1t4 -3t0 -6q-2 -17 -13 -83.5t-22 -130t-12 -67.5q208 375 213 389q6 12 -5 12l-67 1q-67 1 -78 1q-6 1 -6 5 q1 8 15 123.5t14 117.5q0 4 -2 0q-2 -5 -42.5 -93t-79 -172t-38.5 -85z" />
<glyph unicode="&#xb7;" d="M6 754q0 159 113 272t272 113t272 -113t113 -272q0 -160 -112.5 -272.5t-272.5 -112.5t-272.5 112.5t-112.5 272.5zM246 727q-3 -8 8 -8h27h71h7.5t5.5 -1t4 -3t0 -6q-2 -17 -13 -83.5t-22 -130t-12 -67.5q208 375 213 389q6 12 -5 12l-67 1q-67 1 -78 1q-6 1 -6 5 q1 8 15 123.5t14 117.5q0 4 -2 0q-2 -5 -42.5 -93t-79 -172t-38.5 -85z" />
<glyph unicode="&#xb8;" d="M6 754q0 159 113 272t272 113t272 -113t113 -272q0 -160 -112.5 -272.5t-272.5 -112.5t-272.5 112.5t-112.5 272.5zM246 727q-3 -8 8 -8h27h71h7.5t5.5 -1t4 -3t0 -6q-2 -17 -13 -83.5t-22 -130t-12 -67.5q208 375 213 389q6 12 -5 12l-67 1q-67 1 -78 1q-6 1 -6 5 q1 8 15 123.5t14 117.5q0 4 -2 0q-2 -5 -42.5 -93t-79 -172t-38.5 -85z" />
<glyph unicode="&#xb9;" d="M6 754q0 159 113 272t272 113t272 -113t113 -272q0 -160 -112.5 -272.5t-272.5 -112.5t-272.5 112.5t-112.5 272.5zM246 727q-3 -8 8 -8h27h71h7.5t5.5 -1t4 -3t0 -6q-2 -17 -13 -83.5t-22 -130t-12 -67.5q208 375 213 389q6 12 -5 12l-67 1q-67 1 -78 1q-6 1 -6 5 q1 8 15 123.5t14 117.5q0 4 -2 0q-2 -5 -42.5 -93t-79 -172t-38.5 -85z" />
<glyph unicode="&#xba;" d="M6 754q0 159 113 272t272 113t272 -113t113 -272q0 -160 -112.5 -272.5t-272.5 -112.5t-272.5 112.5t-112.5 272.5zM246 727q-3 -8 8 -8h27h71h7.5t5.5 -1t4 -3t0 -6q-2 -17 -13 -83.5t-22 -130t-12 -67.5q208 375 213 389q6 12 -5 12l-67 1q-67 1 -78 1q-6 1 -6 5 q1 8 15 123.5t14 117.5q0 4 -2 0q-2 -5 -42.5 -93t-79 -172t-38.5 -85z" />
<glyph unicode="&#xbb;" d="M6 754q0 159 113 272t272 113t272 -113t113 -272q0 -160 -112.5 -272.5t-272.5 -112.5t-272.5 112.5t-112.5 272.5zM246 727q-3 -8 8 -8h27h71h7.5t5.5 -1t4 -3t0 -6q-2 -17 -13 -83.5t-22 -130t-12 -67.5q208 375 213 389q6 12 -5 12l-67 1q-67 1 -78 1q-6 1 -6 5 q1 8 15 123.5t14 117.5q0 4 -2 0q-2 -5 -42.5 -93t-79 -172t-38.5 -85z" />
<glyph unicode="&#xbc;" d="M6 754q0 159 113 272t272 113t272 -113t113 -272q0 -160 -112.5 -272.5t-272.5 -112.5t-272.5 112.5t-112.5 272.5zM246 727q-3 -8 8 -8h27h71h7.5t5.5 -1t4 -3t0 -6q-2 -17 -13 -83.5t-22 -130t-12 -67.5q208 375 213 389q6 12 -5 12l-67 1q-67 1 -78 1q-6 1 -6 5 q1 8 15 123.5t14 117.5q0 4 -2 0q-2 -5 -42.5 -93t-79 -172t-38.5 -85z" />
<glyph unicode="&#xbd;" d="M6 754q0 159 113 272t272 113t272 -113t113 -272q0 -160 -112.5 -272.5t-272.5 -112.5t-272.5 112.5t-112.5 272.5zM246 727q-3 -8 8 -8h27h71h7.5t5.5 -1t4 -3t0 -6q-2 -17 -13 -83.5t-22 -130t-12 -67.5q208 375 213 389q6 12 -5 12l-67 1q-67 1 -78 1q-6 1 -6 5 q1 8 15 123.5t14 117.5q0 4 -2 0q-2 -5 -42.5 -93t-79 -172t-38.5 -85z" />
<glyph unicode="&#xbe;" d="M6 754q0 159 113 272t272 113t272 -113t113 -272q0 -160 -112.5 -272.5t-272.5 -112.5t-272.5 112.5t-112.5 272.5zM246 727q-3 -8 8 -8h27h71h7.5t5.5 -1t4 -3t0 -6q-2 -17 -13 -83.5t-22 -130t-12 -67.5q208 375 213 389q6 12 -5 12l-67 1q-67 1 -78 1q-6 1 -6 5 q1 8 15 123.5t14 117.5q0 4 -2 0q-2 -5 -42.5 -93t-79 -172t-38.5 -85z" />
<glyph unicode="&#xbf;" horiz-adv-x="1083" d="M2 0q2 10 25 90t39 156l253 2l-65 -248h-115h-137zM84 1077q-3 0 0 17q2 13 11 42t34.5 79.5t56.5 84.5q115 125 291 125h144q73 0 119 -14.5t70.5 -37.5t49.5 -66q43 -77 -2 -234q-6 -26 -16.5 -57.5t-38 -81t-62.5 -84.5q-16 -16 -29.5 -28t-31 -23.5t-26 -17.5 t-32 -17.5t-30.5 -14.5t-39.5 -17.5t-42.5 -18.5q-31 -9 -59.5 -27.5t-28.5 -36.5q-15 -51 -34 -128t-32 -124q-17 0 -40.5 -0.5t-47 0t-48 0.5t-45.5 0.5t-38 1t-27 0.5h-10q4 21 19.5 72t19.5 66l6 23l29 108q26 94 74 146t137 87l2 2q29 10 121 51q67 28 90 115 q16 55 -3 88t-97 33q-23 0 -43 -2q-51 -3 -80 -34.5t-39 -70.5q-3 -6 -8 -6h-119h-125z" />
<glyph unicode="&#xc0;" d="M6 754q0 159 113 272t272 113t272 -113t113 -272q0 -160 -112.5 -272.5t-272.5 -112.5t-272.5 112.5t-112.5 272.5zM246 727q-3 -8 8 -8h27h71h7.5t5.5 -1t4 -3t0 -6q-2 -17 -13 -83.5t-22 -130t-12 -67.5q208 375 213 389q6 12 -5 12l-67 1q-67 1 -78 1q-6 1 -6 5 q1 8 15 123.5t14 117.5q0 4 -2 0q-2 -5 -42.5 -93t-79 -172t-38.5 -85z" />
<glyph unicode="&#xc1;" d="M6 754q0 159 113 272t272 113t272 -113t113 -272q0 -160 -112.5 -272.5t-272.5 -112.5t-272.5 112.5t-112.5 272.5zM246 727q-3 -8 8 -8h27h71h7.5t5.5 -1t4 -3t0 -6q-2 -17 -13 -83.5t-22 -130t-12 -67.5q208 375 213 389q6 12 -5 12l-67 1q-67 1 -78 1q-6 1 -6 5 q1 8 15 123.5t14 117.5q0 4 -2 0q-2 -5 -42.5 -93t-79 -172t-38.5 -85z" />
<glyph unicode="&#xc2;" d="M6 754q0 159 113 272t272 113t272 -113t113 -272q0 -160 -112.5 -272.5t-272.5 -112.5t-272.5 112.5t-112.5 272.5zM246 727q-3 -8 8 -8h27h71h7.5t5.5 -1t4 -3t0 -6q-2 -17 -13 -83.5t-22 -130t-12 -67.5q208 375 213 389q6 12 -5 12l-67 1q-67 1 -78 1q-6 1 -6 5 q1 8 15 123.5t14 117.5q0 4 -2 0q-2 -5 -42.5 -93t-79 -172t-38.5 -85z" />
<glyph unicode="&#xc3;" d="M6 754q0 159 113 272t272 113t272 -113t113 -272q0 -160 -112.5 -272.5t-272.5 -112.5t-272.5 112.5t-112.5 272.5zM246 727q-3 -8 8 -8h27h71h7.5t5.5 -1t4 -3t0 -6q-2 -17 -13 -83.5t-22 -130t-12 -67.5q208 375 213 389q6 12 -5 12l-67 1q-67 1 -78 1q-6 1 -6 5 q1 8 15 123.5t14 117.5q0 4 -2 0q-2 -5 -42.5 -93t-79 -172t-38.5 -85z" />
<glyph unicode="&#xc4;" d="M6 754q0 159 113 272t272 113t272 -113t113 -272q0 -160 -112.5 -272.5t-272.5 -112.5t-272.5 112.5t-112.5 272.5zM246 727q-3 -8 8 -8h27h71h7.5t5.5 -1t4 -3t0 -6q-2 -17 -13 -83.5t-22 -130t-12 -67.5q208 375 213 389q6 12 -5 12l-67 1q-67 1 -78 1q-6 1 -6 5 q1 8 15 123.5t14 117.5q0 4 -2 0q-2 -5 -42.5 -93t-79 -172t-38.5 -85z" />
<glyph unicode="&#xc5;" d="M6 754q0 159 113 272t272 113t272 -113t113 -272q0 -160 -112.5 -272.5t-272.5 -112.5t-272.5 112.5t-112.5 272.5zM246 727q-3 -8 8 -8h27h71h7.5t5.5 -1t4 -3t0 -6q-2 -17 -13 -83.5t-22 -130t-12 -67.5q208 375 213 389q6 12 -5 12l-67 1q-67 1 -78 1q-6 1 -6 5 q1 8 15 123.5t14 117.5q0 4 -2 0q-2 -5 -42.5 -93t-79 -172t-38.5 -85z" />
<glyph unicode="&#xc6;" d="M6 754q0 159 113 272t272 113t272 -113t113 -272q0 -160 -112.5 -272.5t-272.5 -112.5t-272.5 112.5t-112.5 272.5zM246 727q-3 -8 8 -8h27h71h7.5t5.5 -1t4 -3t0 -6q-2 -17 -13 -83.5t-22 -130t-12 -67.5q208 375 213 389q6 12 -5 12l-67 1q-67 1 -78 1q-6 1 -6 5 q1 8 15 123.5t14 117.5q0 4 -2 0q-2 -5 -42.5 -93t-79 -172t-38.5 -85z" />
<glyph unicode="&#xc7;" d="M6 754q0 159 113 272t272 113t272 -113t113 -272q0 -160 -112.5 -272.5t-272.5 -112.5t-272.5 112.5t-112.5 272.5zM246 727q-3 -8 8 -8h27h71h7.5t5.5 -1t4 -3t0 -6q-2 -17 -13 -83.5t-22 -130t-12 -67.5q208 375 213 389q6 12 -5 12l-67 1q-67 1 -78 1q-6 1 -6 5 q1 8 15 123.5t14 117.5q0 4 -2 0q-2 -5 -42.5 -93t-79 -172t-38.5 -85z" />
<glyph unicode="&#xc8;" d="M6 754q0 159 113 272t272 113t272 -113t113 -272q0 -160 -112.5 -272.5t-272.5 -112.5t-272.5 112.5t-112.5 272.5zM246 727q-3 -8 8 -8h27h71h7.5t5.5 -1t4 -3t0 -6q-2 -17 -13 -83.5t-22 -130t-12 -67.5q208 375 213 389q6 12 -5 12l-67 1q-67 1 -78 1q-6 1 -6 5 q1 8 15 123.5t14 117.5q0 4 -2 0q-2 -5 -42.5 -93t-79 -172t-38.5 -85z" />
<glyph unicode="&#xc9;" d="M6 754q0 159 113 272t272 113t272 -113t113 -272q0 -160 -112.5 -272.5t-272.5 -112.5t-272.5 112.5t-112.5 272.5zM246 727q-3 -8 8 -8h27h71h7.5t5.5 -1t4 -3t0 -6q-2 -17 -13 -83.5t-22 -130t-12 -67.5q208 375 213 389q6 12 -5 12l-67 1q-67 1 -78 1q-6 1 -6 5 q1 8 15 123.5t14 117.5q0 4 -2 0q-2 -5 -42.5 -93t-79 -172t-38.5 -85z" />
<glyph unicode="&#xca;" d="M6 754q0 159 113 272t272 113t272 -113t113 -272q0 -160 -112.5 -272.5t-272.5 -112.5t-272.5 112.5t-112.5 272.5zM246 727q-3 -8 8 -8h27h71h7.5t5.5 -1t4 -3t0 -6q-2 -17 -13 -83.5t-22 -130t-12 -67.5q208 375 213 389q6 12 -5 12l-67 1q-67 1 -78 1q-6 1 -6 5 q1 8 15 123.5t14 117.5q0 4 -2 0q-2 -5 -42.5 -93t-79 -172t-38.5 -85z" />
<glyph unicode="&#xcb;" d="M6 754q0 159 113 272t272 113t272 -113t113 -272q0 -160 -112.5 -272.5t-272.5 -112.5t-272.5 112.5t-112.5 272.5zM246 727q-3 -8 8 -8h27h71h7.5t5.5 -1t4 -3t0 -6q-2 -17 -13 -83.5t-22 -130t-12 -67.5q208 375 213 389q6 12 -5 12l-67 1q-67 1 -78 1q-6 1 -6 5 q1 8 15 123.5t14 117.5q0 4 -2 0q-2 -5 -42.5 -93t-79 -172t-38.5 -85z" />
<glyph unicode="&#xcc;" d="M6 754q0 159 113 272t272 113t272 -113t113 -272q0 -160 -112.5 -272.5t-272.5 -112.5t-272.5 112.5t-112.5 272.5zM246 727q-3 -8 8 -8h27h71h7.5t5.5 -1t4 -3t0 -6q-2 -17 -13 -83.5t-22 -130t-12 -67.5q208 375 213 389q6 12 -5 12l-67 1q-67 1 -78 1q-6 1 -6 5 q1 8 15 123.5t14 117.5q0 4 -2 0q-2 -5 -42.5 -93t-79 -172t-38.5 -85z" />
<glyph unicode="&#xcd;" d="M6 754q0 159 113 272t272 113t272 -113t113 -272q0 -160 -112.5 -272.5t-272.5 -112.5t-272.5 112.5t-112.5 272.5zM246 727q-3 -8 8 -8h27h71h7.5t5.5 -1t4 -3t0 -6q-2 -17 -13 -83.5t-22 -130t-12 -67.5q208 375 213 389q6 12 -5 12l-67 1q-67 1 -78 1q-6 1 -6 5 q1 8 15 123.5t14 117.5q0 4 -2 0q-2 -5 -42.5 -93t-79 -172t-38.5 -85z" />
<glyph unicode="&#xce;" d="M6 754q0 159 113 272t272 113t272 -113t113 -272q0 -160 -112.5 -272.5t-272.5 -112.5t-272.5 112.5t-112.5 272.5zM246 727q-3 -8 8 -8h27h71h7.5t5.5 -1t4 -3t0 -6q-2 -17 -13 -83.5t-22 -130t-12 -67.5q208 375 213 389q6 12 -5 12l-67 1q-67 1 -78 1q-6 1 -6 5 q1 8 15 123.5t14 117.5q0 4 -2 0q-2 -5 -42.5 -93t-79 -172t-38.5 -85z" />
<glyph unicode="&#xcf;" d="M6 754q0 159 113 272t272 113t272 -113t113 -272q0 -160 -112.5 -272.5t-272.5 -112.5t-272.5 112.5t-112.5 272.5zM246 727q-3 -8 8 -8h27h71h7.5t5.5 -1t4 -3t0 -6q-2 -17 -13 -83.5t-22 -130t-12 -67.5q208 375 213 389q6 12 -5 12l-67 1q-67 1 -78 1q-6 1 -6 5 q1 8 15 123.5t14 117.5q0 4 -2 0q-2 -5 -42.5 -93t-79 -172t-38.5 -85z" />
<glyph unicode="&#xd0;" d="M6 754q0 159 113 272t272 113t272 -113t113 -272q0 -160 -112.5 -272.5t-272.5 -112.5t-272.5 112.5t-112.5 272.5zM246 727q-3 -8 8 -8h27h71h7.5t5.5 -1t4 -3t0 -6q-2 -17 -13 -83.5t-22 -130t-12 -67.5q208 375 213 389q6 12 -5 12l-67 1q-67 1 -78 1q-6 1 -6 5 q1 8 15 123.5t14 117.5q0 4 -2 0q-2 -5 -42.5 -93t-79 -172t-38.5 -85z" />
<glyph unicode="&#xd1;" d="M6 754q0 159 113 272t272 113t272 -113t113 -272q0 -160 -112.5 -272.5t-272.5 -112.5t-272.5 112.5t-112.5 272.5zM246 727q-3 -8 8 -8h27h71h7.5t5.5 -1t4 -3t0 -6q-2 -17 -13 -83.5t-22 -130t-12 -67.5q208 375 213 389q6 12 -5 12l-67 1q-67 1 -78 1q-6 1 -6 5 q1 8 15 123.5t14 117.5q0 4 -2 0q-2 -5 -42.5 -93t-79 -172t-38.5 -85z" />
<glyph unicode="&#xd2;" d="M6 754q0 159 113 272t272 113t272 -113t113 -272q0 -160 -112.5 -272.5t-272.5 -112.5t-272.5 112.5t-112.5 272.5zM246 727q-3 -8 8 -8h27h71h7.5t5.5 -1t4 -3t0 -6q-2 -17 -13 -83.5t-22 -130t-12 -67.5q208 375 213 389q6 12 -5 12l-67 1q-67 1 -78 1q-6 1 -6 5 q1 8 15 123.5t14 117.5q0 4 -2 0q-2 -5 -42.5 -93t-79 -172t-38.5 -85z" />
<glyph unicode="&#xd3;" d="M6 754q0 159 113 272t272 113t272 -113t113 -272q0 -160 -112.5 -272.5t-272.5 -112.5t-272.5 112.5t-112.5 272.5zM246 727q-3 -8 8 -8h27h71h7.5t5.5 -1t4 -3t0 -6q-2 -17 -13 -83.5t-22 -130t-12 -67.5q208 375 213 389q6 12 -5 12l-67 1q-67 1 -78 1q-6 1 -6 5 q1 8 15 123.5t14 117.5q0 4 -2 0q-2 -5 -42.5 -93t-79 -172t-38.5 -85z" />
<glyph unicode="&#xd4;" d="M6 754q0 159 113 272t272 113t272 -113t113 -272q0 -160 -112.5 -272.5t-272.5 -112.5t-272.5 112.5t-112.5 272.5zM246 727q-3 -8 8 -8h27h71h7.5t5.5 -1t4 -3t0 -6q-2 -17 -13 -83.5t-22 -130t-12 -67.5q208 375 213 389q6 12 -5 12l-67 1q-67 1 -78 1q-6 1 -6 5 q1 8 15 123.5t14 117.5q0 4 -2 0q-2 -5 -42.5 -93t-79 -172t-38.5 -85z" />
<glyph unicode="&#xd5;" d="M6 754q0 159 113 272t272 113t272 -113t113 -272q0 -160 -112.5 -272.5t-272.5 -112.5t-272.5 112.5t-112.5 272.5zM246 727q-3 -8 8 -8h27h71h7.5t5.5 -1t4 -3t0 -6q-2 -17 -13 -83.5t-22 -130t-12 -67.5q208 375 213 389q6 12 -5 12l-67 1q-67 1 -78 1q-6 1 -6 5 q1 8 15 123.5t14 117.5q0 4 -2 0q-2 -5 -42.5 -93t-79 -172t-38.5 -85z" />
<glyph unicode="&#xd6;" d="M6 754q0 159 113 272t272 113t272 -113t113 -272q0 -160 -112.5 -272.5t-272.5 -112.5t-272.5 112.5t-112.5 272.5zM246 727q-3 -8 8 -8h27h71h7.5t5.5 -1t4 -3t0 -6q-2 -17 -13 -83.5t-22 -130t-12 -67.5q208 375 213 389q6 12 -5 12l-67 1q-67 1 -78 1q-6 1 -6 5 q1 8 15 123.5t14 117.5q0 4 -2 0q-2 -5 -42.5 -93t-79 -172t-38.5 -85z" />
<glyph unicode="&#xd7;" horiz-adv-x="1298" d="M8 743q73 58 155 123.5t121 96.5t40 32q2 2 0 4q0 1 -84 116.5t-86 117.5q-5 8 6 16q53 40 123 97q30 26 54 45t32.5 26t9.5 8q7 4 10 -2q3 -7 166 -223q3 -4 9 -13t9 -13q276 213 332 258q15 -20 42.5 -56.5t50 -66t42.5 -54.5q-61 -47 -174 -136t-161 -126 q162 -228 165 -233q3 -6 -6 -15t-121 -96q-16 -12 -35 -27.5t-30.5 -24.5l-23 -18t-17 -12t-6.5 -2q-2 5 -99 129l-73 97q-1 1 -8 -5l-33 -25q-32 -25 -101.5 -80.5t-144.5 -115.5q-3 -2 -9 -7t-9 -7q-72 80 -146 192zM383 1427h2h-2z" />
<glyph unicode="&#xd8;" d="M6 754q0 159 113 272t272 113t272 -113t113 -272q0 -160 -112.5 -272.5t-272.5 -112.5t-272.5 112.5t-112.5 272.5zM246 727q-3 -8 8 -8h27h71h7.5t5.5 -1t4 -3t0 -6q-2 -17 -13 -83.5t-22 -130t-12 -67.5q208 375 213 389q6 12 -5 12l-67 1q-67 1 -78 1q-6 1 -6 5 q1 8 15 123.5t14 117.5q0 4 -2 0q-2 -5 -42.5 -93t-79 -172t-38.5 -85z" />
<glyph unicode="&#xd9;" d="M6 754q0 159 113 272t272 113t272 -113t113 -272q0 -160 -112.5 -272.5t-272.5 -112.5t-272.5 112.5t-112.5 272.5zM246 727q-3 -8 8 -8h27h71h7.5t5.5 -1t4 -3t0 -6q-2 -17 -13 -83.5t-22 -130t-12 -67.5q208 375 213 389q6 12 -5 12l-67 1q-67 1 -78 1q-6 1 -6 5 q1 8 15 123.5t14 117.5q0 4 -2 0q-2 -5 -42.5 -93t-79 -172t-38.5 -85z" />
<glyph unicode="&#xda;" d="M6 754q0 159 113 272t272 113t272 -113t113 -272q0 -160 -112.5 -272.5t-272.5 -112.5t-272.5 112.5t-112.5 272.5zM246 727q-3 -8 8 -8h27h71h7.5t5.5 -1t4 -3t0 -6q-2 -17 -13 -83.5t-22 -130t-12 -67.5q208 375 213 389q6 12 -5 12l-67 1q-67 1 -78 1q-6 1 -6 5 q1 8 15 123.5t14 117.5q0 4 -2 0q-2 -5 -42.5 -93t-79 -172t-38.5 -85z" />
<glyph unicode="&#xdb;" d="M6 754q0 159 113 272t272 113t272 -113t113 -272q0 -160 -112.5 -272.5t-272.5 -112.5t-272.5 112.5t-112.5 272.5zM246 727q-3 -8 8 -8h27h71h7.5t5.5 -1t4 -3t0 -6q-2 -17 -13 -83.5t-22 -130t-12 -67.5q208 375 213 389q6 12 -5 12l-67 1q-67 1 -78 1q-6 1 -6 5 q1 8 15 123.5t14 117.5q0 4 -2 0q-2 -5 -42.5 -93t-79 -172t-38.5 -85z" />
<glyph unicode="&#xdc;" d="M6 754q0 159 113 272t272 113t272 -113t113 -272q0 -160 -112.5 -272.5t-272.5 -112.5t-272.5 112.5t-112.5 272.5zM246 727q-3 -8 8 -8h27h71h7.5t5.5 -1t4 -3t0 -6q-2 -17 -13 -83.5t-22 -130t-12 -67.5q208 375 213 389q6 12 -5 12l-67 1q-67 1 -78 1q-6 1 -6 5 q1 8 15 123.5t14 117.5q0 4 -2 0q-2 -5 -42.5 -93t-79 -172t-38.5 -85z" />
<glyph unicode="&#xdd;" d="M6 754q0 159 113 272t272 113t272 -113t113 -272q0 -160 -112.5 -272.5t-272.5 -112.5t-272.5 112.5t-112.5 272.5zM246 727q-3 -8 8 -8h27h71h7.5t5.5 -1t4 -3t0 -6q-2 -17 -13 -83.5t-22 -130t-12 -67.5q208 375 213 389q6 12 -5 12l-67 1q-67 1 -78 1q-6 1 -6 5 q1 8 15 123.5t14 117.5q0 4 -2 0q-2 -5 -42.5 -93t-79 -172t-38.5 -85z" />
<glyph unicode="&#xde;" d="M6 754q0 159 113 272t272 113t272 -113t113 -272q0 -160 -112.5 -272.5t-272.5 -112.5t-272.5 112.5t-112.5 272.5zM246 727q-3 -8 8 -8h27h71h7.5t5.5 -1t4 -3t0 -6q-2 -17 -13 -83.5t-22 -130t-12 -67.5q208 375 213 389q6 12 -5 12l-67 1q-67 1 -78 1q-6 1 -6 5 q1 8 15 123.5t14 117.5q0 4 -2 0q-2 -5 -42.5 -93t-79 -172t-38.5 -85z" />
<glyph unicode="&#xdf;" d="M6 754q0 159 113 272t272 113t272 -113t113 -272q0 -160 -112.5 -272.5t-272.5 -112.5t-272.5 112.5t-112.5 272.5zM246 727q-3 -8 8 -8h27h71h7.5t5.5 -1t4 -3t0 -6q-2 -17 -13 -83.5t-22 -130t-12 -67.5q208 375 213 389q6 12 -5 12l-67 1q-67 1 -78 1q-6 1 -6 5 q1 8 15 123.5t14 117.5q0 4 -2 0q-2 -5 -42.5 -93t-79 -172t-38.5 -85z" />
<glyph unicode="&#xe0;" d="M6 754q0 159 113 272t272 113t272 -113t113 -272q0 -160 -112.5 -272.5t-272.5 -112.5t-272.5 112.5t-112.5 272.5zM246 727q-3 -8 8 -8h27h71h7.5t5.5 -1t4 -3t0 -6q-2 -17 -13 -83.5t-22 -130t-12 -67.5q208 375 213 389q6 12 -5 12l-67 1q-67 1 -78 1q-6 1 -6 5 q1 8 15 123.5t14 117.5q0 4 -2 0q-2 -5 -42.5 -93t-79 -172t-38.5 -85z" />
<glyph unicode="&#xe1;" d="M6 754q0 159 113 272t272 113t272 -113t113 -272q0 -160 -112.5 -272.5t-272.5 -112.5t-272.5 112.5t-112.5 272.5zM246 727q-3 -8 8 -8h27h71h7.5t5.5 -1t4 -3t0 -6q-2 -17 -13 -83.5t-22 -130t-12 -67.5q208 375 213 389q6 12 -5 12l-67 1q-67 1 -78 1q-6 1 -6 5 q1 8 15 123.5t14 117.5q0 4 -2 0q-2 -5 -42.5 -93t-79 -172t-38.5 -85z" />
<glyph unicode="&#xe2;" d="M6 754q0 159 113 272t272 113t272 -113t113 -272q0 -160 -112.5 -272.5t-272.5 -112.5t-272.5 112.5t-112.5 272.5zM246 727q-3 -8 8 -8h27h71h7.5t5.5 -1t4 -3t0 -6q-2 -17 -13 -83.5t-22 -130t-12 -67.5q208 375 213 389q6 12 -5 12l-67 1q-67 1 -78 1q-6 1 -6 5 q1 8 15 123.5t14 117.5q0 4 -2 0q-2 -5 -42.5 -93t-79 -172t-38.5 -85z" />
<glyph unicode="&#xe3;" d="M6 754q0 159 113 272t272 113t272 -113t113 -272q0 -160 -112.5 -272.5t-272.5 -112.5t-272.5 112.5t-112.5 272.5zM246 727q-3 -8 8 -8h27h71h7.5t5.5 -1t4 -3t0 -6q-2 -17 -13 -83.5t-22 -130t-12 -67.5q208 375 213 389q6 12 -5 12l-67 1q-67 1 -78 1q-6 1 -6 5 q1 8 15 123.5t14 117.5q0 4 -2 0q-2 -5 -42.5 -93t-79 -172t-38.5 -85z" />
<glyph unicode="&#xe4;" d="M6 754q0 159 113 272t272 113t272 -113t113 -272q0 -160 -112.5 -272.5t-272.5 -112.5t-272.5 112.5t-112.5 272.5zM246 727q-3 -8 8 -8h27h71h7.5t5.5 -1t4 -3t0 -6q-2 -17 -13 -83.5t-22 -130t-12 -67.5q208 375 213 389q6 12 -5 12l-67 1q-67 1 -78 1q-6 1 -6 5 q1 8 15 123.5t14 117.5q0 4 -2 0q-2 -5 -42.5 -93t-79 -172t-38.5 -85z" />
<glyph unicode="&#xe5;" d="M6 754q0 159 113 272t272 113t272 -113t113 -272q0 -160 -112.5 -272.5t-272.5 -112.5t-272.5 112.5t-112.5 272.5zM246 727q-3 -8 8 -8h27h71h7.5t5.5 -1t4 -3t0 -6q-2 -17 -13 -83.5t-22 -130t-12 -67.5q208 375 213 389q6 12 -5 12l-67 1q-67 1 -78 1q-6 1 -6 5 q1 8 15 123.5t14 117.5q0 4 -2 0q-2 -5 -42.5 -93t-79 -172t-38.5 -85z" />
<glyph unicode="&#xe6;" d="M6 754q0 159 113 272t272 113t272 -113t113 -272q0 -160 -112.5 -272.5t-272.5 -112.5t-272.5 112.5t-112.5 272.5zM246 727q-3 -8 8 -8h27h71h7.5t5.5 -1t4 -3t0 -6q-2 -17 -13 -83.5t-22 -130t-12 -67.5q208 375 213 389q6 12 -5 12l-67 1q-67 1 -78 1q-6 1 -6 5 q1 8 15 123.5t14 117.5q0 4 -2 0q-2 -5 -42.5 -93t-79 -172t-38.5 -85z" />
<glyph unicode="&#xe7;" d="M6 754q0 159 113 272t272 113t272 -113t113 -272q0 -160 -112.5 -272.5t-272.5 -112.5t-272.5 112.5t-112.5 272.5zM246 727q-3 -8 8 -8h27h71h7.5t5.5 -1t4 -3t0 -6q-2 -17 -13 -83.5t-22 -130t-12 -67.5q208 375 213 389q6 12 -5 12l-67 1q-67 1 -78 1q-6 1 -6 5 q1 8 15 123.5t14 117.5q0 4 -2 0q-2 -5 -42.5 -93t-79 -172t-38.5 -85z" />
<glyph unicode="&#xe8;" d="M6 754q0 159 113 272t272 113t272 -113t113 -272q0 -160 -112.5 -272.5t-272.5 -112.5t-272.5 112.5t-112.5 272.5zM246 727q-3 -8 8 -8h27h71h7.5t5.5 -1t4 -3t0 -6q-2 -17 -13 -83.5t-22 -130t-12 -67.5q208 375 213 389q6 12 -5 12l-67 1q-67 1 -78 1q-6 1 -6 5 q1 8 15 123.5t14 117.5q0 4 -2 0q-2 -5 -42.5 -93t-79 -172t-38.5 -85z" />
<glyph unicode="&#xe9;" d="M6 754q0 159 113 272t272 113t272 -113t113 -272q0 -160 -112.5 -272.5t-272.5 -112.5t-272.5 112.5t-112.5 272.5zM246 727q-3 -8 8 -8h27h71h7.5t5.5 -1t4 -3t0 -6q-2 -17 -13 -83.5t-22 -130t-12 -67.5q208 375 213 389q6 12 -5 12l-67 1q-67 1 -78 1q-6 1 -6 5 q1 8 15 123.5t14 117.5q0 4 -2 0q-2 -5 -42.5 -93t-79 -172t-38.5 -85z" />
<glyph unicode="&#xea;" d="M6 754q0 159 113 272t272 113t272 -113t113 -272q0 -160 -112.5 -272.5t-272.5 -112.5t-272.5 112.5t-112.5 272.5zM246 727q-3 -8 8 -8h27h71h7.5t5.5 -1t4 -3t0 -6q-2 -17 -13 -83.5t-22 -130t-12 -67.5q208 375 213 389q6 12 -5 12l-67 1q-67 1 -78 1q-6 1 -6 5 q1 8 15 123.5t14 117.5q0 4 -2 0q-2 -5 -42.5 -93t-79 -172t-38.5 -85z" />
<glyph unicode="&#xeb;" d="M6 754q0 159 113 272t272 113t272 -113t113 -272q0 -160 -112.5 -272.5t-272.5 -112.5t-272.5 112.5t-112.5 272.5zM246 727q-3 -8 8 -8h27h71h7.5t5.5 -1t4 -3t0 -6q-2 -17 -13 -83.5t-22 -130t-12 -67.5q208 375 213 389q6 12 -5 12l-67 1q-67 1 -78 1q-6 1 -6 5 q1 8 15 123.5t14 117.5q0 4 -2 0q-2 -5 -42.5 -93t-79 -172t-38.5 -85z" />
<glyph unicode="&#xec;" d="M6 754q0 159 113 272t272 113t272 -113t113 -272q0 -160 -112.5 -272.5t-272.5 -112.5t-272.5 112.5t-112.5 272.5zM246 727q-3 -8 8 -8h27h71h7.5t5.5 -1t4 -3t0 -6q-2 -17 -13 -83.5t-22 -130t-12 -67.5q208 375 213 389q6 12 -5 12l-67 1q-67 1 -78 1q-6 1 -6 5 q1 8 15 123.5t14 117.5q0 4 -2 0q-2 -5 -42.5 -93t-79 -172t-38.5 -85z" />
<glyph unicode="&#xed;" d="M6 754q0 159 113 272t272 113t272 -113t113 -272q0 -160 -112.5 -272.5t-272.5 -112.5t-272.5 112.5t-112.5 272.5zM246 727q-3 -8 8 -8h27h71h7.5t5.5 -1t4 -3t0 -6q-2 -17 -13 -83.5t-22 -130t-12 -67.5q208 375 213 389q6 12 -5 12l-67 1q-67 1 -78 1q-6 1 -6 5 q1 8 15 123.5t14 117.5q0 4 -2 0q-2 -5 -42.5 -93t-79 -172t-38.5 -85z" />
<glyph unicode="&#xee;" d="M6 754q0 159 113 272t272 113t272 -113t113 -272q0 -160 -112.5 -272.5t-272.5 -112.5t-272.5 112.5t-112.5 272.5zM246 727q-3 -8 8 -8h27h71h7.5t5.5 -1t4 -3t0 -6q-2 -17 -13 -83.5t-22 -130t-12 -67.5q208 375 213 389q6 12 -5 12l-67 1q-67 1 -78 1q-6 1 -6 5 q1 8 15 123.5t14 117.5q0 4 -2 0q-2 -5 -42.5 -93t-79 -172t-38.5 -85z" />
<glyph unicode="&#xef;" d="M6 754q0 159 113 272t272 113t272 -113t113 -272q0 -160 -112.5 -272.5t-272.5 -112.5t-272.5 112.5t-112.5 272.5zM246 727q-3 -8 8 -8h27h71h7.5t5.5 -1t4 -3t0 -6q-2 -17 -13 -83.5t-22 -130t-12 -67.5q208 375 213 389q6 12 -5 12l-67 1q-67 1 -78 1q-6 1 -6 5 q1 8 15 123.5t14 117.5q0 4 -2 0q-2 -5 -42.5 -93t-79 -172t-38.5 -85z" />
<glyph unicode="&#xf0;" d="M6 754q0 159 113 272t272 113t272 -113t113 -272q0 -160 -112.5 -272.5t-272.5 -112.5t-272.5 112.5t-112.5 272.5zM246 727q-3 -8 8 -8h27h71h7.5t5.5 -1t4 -3t0 -6q-2 -17 -13 -83.5t-22 -130t-12 -67.5q208 375 213 389q6 12 -5 12l-67 1q-67 1 -78 1q-6 1 -6 5 q1 8 15 123.5t14 117.5q0 4 -2 0q-2 -5 -42.5 -93t-79 -172t-38.5 -85z" />
<glyph unicode="&#xf1;" d="M6 754q0 159 113 272t272 113t272 -113t113 -272q0 -160 -112.5 -272.5t-272.5 -112.5t-272.5 112.5t-112.5 272.5zM246 727q-3 -8 8 -8h27h71h7.5t5.5 -1t4 -3t0 -6q-2 -17 -13 -83.5t-22 -130t-12 -67.5q208 375 213 389q6 12 -5 12l-67 1q-67 1 -78 1q-6 1 -6 5 q1 8 15 123.5t14 117.5q0 4 -2 0q-2 -5 -42.5 -93t-79 -172t-38.5 -85z" />
<glyph unicode="&#xf2;" d="M6 754q0 159 113 272t272 113t272 -113t113 -272q0 -160 -112.5 -272.5t-272.5 -112.5t-272.5 112.5t-112.5 272.5zM246 727q-3 -8 8 -8h27h71h7.5t5.5 -1t4 -3t0 -6q-2 -17 -13 -83.5t-22 -130t-12 -67.5q208 375 213 389q6 12 -5 12l-67 1q-67 1 -78 1q-6 1 -6 5 q1 8 15 123.5t14 117.5q0 4 -2 0q-2 -5 -42.5 -93t-79 -172t-38.5 -85z" />
<glyph unicode="&#xf3;" d="M6 754q0 159 113 272t272 113t272 -113t113 -272q0 -160 -112.5 -272.5t-272.5 -112.5t-272.5 112.5t-112.5 272.5zM246 727q-3 -8 8 -8h27h71h7.5t5.5 -1t4 -3t0 -6q-2 -17 -13 -83.5t-22 -130t-12 -67.5q208 375 213 389q6 12 -5 12l-67 1q-67 1 -78 1q-6 1 -6 5 q1 8 15 123.5t14 117.5q0 4 -2 0q-2 -5 -42.5 -93t-79 -172t-38.5 -85z" />
<glyph unicode="&#xf4;" d="M6 754q0 159 113 272t272 113t272 -113t113 -272q0 -160 -112.5 -272.5t-272.5 -112.5t-272.5 112.5t-112.5 272.5zM246 727q-3 -8 8 -8h27h71h7.5t5.5 -1t4 -3t0 -6q-2 -17 -13 -83.5t-22 -130t-12 -67.5q208 375 213 389q6 12 -5 12l-67 1q-67 1 -78 1q-6 1 -6 5 q1 8 15 123.5t14 117.5q0 4 -2 0q-2 -5 -42.5 -93t-79 -172t-38.5 -85z" />
<glyph unicode="&#xf5;" d="M6 754q0 159 113 272t272 113t272 -113t113 -272q0 -160 -112.5 -272.5t-272.5 -112.5t-272.5 112.5t-112.5 272.5zM246 727q-3 -8 8 -8h27h71h7.5t5.5 -1t4 -3t0 -6q-2 -17 -13 -83.5t-22 -130t-12 -67.5q208 375 213 389q6 12 -5 12l-67 1q-67 1 -78 1q-6 1 -6 5 q1 8 15 123.5t14 117.5q0 4 -2 0q-2 -5 -42.5 -93t-79 -172t-38.5 -85z" />
<glyph unicode="&#xf6;" d="M6 754q0 159 113 272t272 113t272 -113t113 -272q0 -160 -112.5 -272.5t-272.5 -112.5t-272.5 112.5t-112.5 272.5zM246 727q-3 -8 8 -8h27h71h7.5t5.5 -1t4 -3t0 -6q-2 -17 -13 -83.5t-22 -130t-12 -67.5q208 375 213 389q6 12 -5 12l-67 1q-67 1 -78 1q-6 1 -6 5 q1 8 15 123.5t14 117.5q0 4 -2 0q-2 -5 -42.5 -93t-79 -172t-38.5 -85z" />
<glyph unicode="&#xf7;" horiz-adv-x="1097" d="M0 614l66 252q405 4 587 4q19 0 134 -1t198 -1l-67 -254h-117h-801zM217 193v4q17 62 62 243q21 0 64 1t65 1q48 2 135 -2l-64 -250h-127q-16 0 -35.5 0.5t-36.5 1t-31 0.5h-23zM434 1004v4q3 11 11.5 45t22.5 89t28 109q22 0 65 1t64 1q90 0 135 -2l-64 -250h-127z" />
<glyph unicode="&#xf8;" d="M6 754q0 159 113 272t272 113t272 -113t113 -272q0 -160 -112.5 -272.5t-272.5 -112.5t-272.5 112.5t-112.5 272.5zM246 727q-3 -8 8 -8h27h71h7.5t5.5 -1t4 -3t0 -6q-2 -17 -13 -83.5t-22 -130t-12 -67.5q208 375 213 389q6 12 -5 12l-67 1q-67 1 -78 1q-6 1 -6 5 q1 8 15 123.5t14 117.5q0 4 -2 0q-2 -5 -42.5 -93t-79 -172t-38.5 -85z" />
<glyph unicode="&#xf9;" d="M6 754q0 159 113 272t272 113t272 -113t113 -272q0 -160 -112.5 -272.5t-272.5 -112.5t-272.5 112.5t-112.5 272.5zM246 727q-3 -8 8 -8h27h71h7.5t5.5 -1t4 -3t0 -6q-2 -17 -13 -83.5t-22 -130t-12 -67.5q208 375 213 389q6 12 -5 12l-67 1q-67 1 -78 1q-6 1 -6 5 q1 8 15 123.5t14 117.5q0 4 -2 0q-2 -5 -42.5 -93t-79 -172t-38.5 -85z" />
<glyph unicode="&#xfa;" d="M6 754q0 159 113 272t272 113t272 -113t113 -272q0 -160 -112.5 -272.5t-272.5 -112.5t-272.5 112.5t-112.5 272.5zM246 727q-3 -8 8 -8h27h71h7.5t5.5 -1t4 -3t0 -6q-2 -17 -13 -83.5t-22 -130t-12 -67.5q208 375 213 389q6 12 -5 12l-67 1q-67 1 -78 1q-6 1 -6 5 q1 8 15 123.5t14 117.5q0 4 -2 0q-2 -5 -42.5 -93t-79 -172t-38.5 -85z" />
<glyph unicode="&#xfb;" d="M6 754q0 159 113 272t272 113t272 -113t113 -272q0 -160 -112.5 -272.5t-272.5 -112.5t-272.5 112.5t-112.5 272.5zM246 727q-3 -8 8 -8h27h71h7.5t5.5 -1t4 -3t0 -6q-2 -17 -13 -83.5t-22 -130t-12 -67.5q208 375 213 389q6 12 -5 12l-67 1q-67 1 -78 1q-6 1 -6 5 q1 8 15 123.5t14 117.5q0 4 -2 0q-2 -5 -42.5 -93t-79 -172t-38.5 -85z" />
<glyph unicode="&#xfc;" d="M6 754q0 159 113 272t272 113t272 -113t113 -272q0 -160 -112.5 -272.5t-272.5 -112.5t-272.5 112.5t-112.5 272.5zM246 727q-3 -8 8 -8h27h71h7.5t5.5 -1t4 -3t0 -6q-2 -17 -13 -83.5t-22 -130t-12 -67.5q208 375 213 389q6 12 -5 12l-67 1q-67 1 -78 1q-6 1 -6 5 q1 8 15 123.5t14 117.5q0 4 -2 0q-2 -5 -42.5 -93t-79 -172t-38.5 -85z" />
<glyph unicode="&#xfd;" d="M6 754q0 159 113 272t272 113t272 -113t113 -272q0 -160 -112.5 -272.5t-272.5 -112.5t-272.5 112.5t-112.5 272.5zM246 727q-3 -8 8 -8h27h71h7.5t5.5 -1t4 -3t0 -6q-2 -17 -13 -83.5t-22 -130t-12 -67.5q208 375 213 389q6 12 -5 12l-67 1q-67 1 -78 1q-6 1 -6 5 q1 8 15 123.5t14 117.5q0 4 -2 0q-2 -5 -42.5 -93t-79 -172t-38.5 -85z" />
<glyph unicode="&#xfe;" d="M6 754q0 159 113 272t272 113t272 -113t113 -272q0 -160 -112.5 -272.5t-272.5 -112.5t-272.5 112.5t-112.5 272.5zM246 727q-3 -8 8 -8h27h71h7.5t5.5 -1t4 -3t0 -6q-2 -17 -13 -83.5t-22 -130t-12 -67.5q208 375 213 389q6 12 -5 12l-67 1q-67 1 -78 1q-6 1 -6 5 q1 8 15 123.5t14 117.5q0 4 -2 0q-2 -5 -42.5 -93t-79 -172t-38.5 -85z" />
<glyph unicode="&#xff;" d="M6 754q0 159 113 272t272 113t272 -113t113 -272q0 -160 -112.5 -272.5t-272.5 -112.5t-272.5 112.5t-112.5 272.5zM246 727q-3 -8 8 -8h27h71h7.5t5.5 -1t4 -3t0 -6q-2 -17 -13 -83.5t-22 -130t-12 -67.5q208 375 213 389q6 12 -5 12l-67 1q-67 1 -78 1q-6 1 -6 5 q1 8 15 123.5t14 117.5q0 4 -2 0q-2 -5 -42.5 -93t-79 -172t-38.5 -85z" />
<glyph unicode="&#x152;" d="M6 754q0 159 113 272t272 113t272 -113t113 -272q0 -160 -112.5 -272.5t-272.5 -112.5t-272.5 112.5t-112.5 272.5zM246 727q-3 -8 8 -8h27h71h7.5t5.5 -1t4 -3t0 -6q-2 -17 -13 -83.5t-22 -130t-12 -67.5q208 375 213 389q6 12 -5 12l-67 1q-67 1 -78 1q-6 1 -6 5 q1 8 15 123.5t14 117.5q0 4 -2 0q-2 -5 -42.5 -93t-79 -172t-38.5 -85z" />
<glyph unicode="&#x153;" d="M6 754q0 159 113 272t272 113t272 -113t113 -272q0 -160 -112.5 -272.5t-272.5 -112.5t-272.5 112.5t-112.5 272.5zM246 727q-3 -8 8 -8h27h71h7.5t5.5 -1t4 -3t0 -6q-2 -17 -13 -83.5t-22 -130t-12 -67.5q208 375 213 389q6 12 -5 12l-67 1q-67 1 -78 1q-6 1 -6 5 q1 8 15 123.5t14 117.5q0 4 -2 0q-2 -5 -42.5 -93t-79 -172t-38.5 -85z" />
<glyph unicode="&#x178;" d="M6 754q0 159 113 272t272 113t272 -113t113 -272q0 -160 -112.5 -272.5t-272.5 -112.5t-272.5 112.5t-112.5 272.5zM246 727q-3 -8 8 -8h27h71h7.5t5.5 -1t4 -3t0 -6q-2 -17 -13 -83.5t-22 -130t-12 -67.5q208 375 213 389q6 12 -5 12l-67 1q-67 1 -78 1q-6 1 -6 5 q1 8 15 123.5t14 117.5q0 4 -2 0q-2 -5 -42.5 -93t-79 -172t-38.5 -85z" />
<glyph unicode="&#x2c6;" d="M6 754q0 159 113 272t272 113t272 -113t113 -272q0 -160 -112.5 -272.5t-272.5 -112.5t-272.5 112.5t-112.5 272.5zM246 727q-3 -8 8 -8h27h71h7.5t5.5 -1t4 -3t0 -6q-2 -17 -13 -83.5t-22 -130t-12 -67.5q208 375 213 389q6 12 -5 12l-67 1q-67 1 -78 1q-6 1 -6 5 q1 8 15 123.5t14 117.5q0 4 -2 0q-2 -5 -42.5 -93t-79 -172t-38.5 -85z" />
<glyph unicode="&#x2dc;" horiz-adv-x="1093" d="M0 821q75 60 134.5 83.5t133.5 23.5q58 0 111.5 -15.5t128.5 -48.5q102 -45 174 -45q49 0 87.5 16t96.5 68v-2l115 -217q-84 -71 -149.5 -99t-145.5 -28q-98 0 -242 64q-102 45 -172 45q-43 0 -76.5 -12t-80.5 -50z" />
<glyph unicode="&#x2000;" horiz-adv-x="946" />
<glyph unicode="&#x2001;" horiz-adv-x="1892" />
<glyph unicode="&#x2002;" horiz-adv-x="946" />
<glyph unicode="&#x2003;" horiz-adv-x="1892" />
<glyph unicode="&#x2004;" horiz-adv-x="630" />
<glyph unicode="&#x2005;" horiz-adv-x="473" />
<glyph unicode="&#x2006;" horiz-adv-x="315" />
<glyph unicode="&#x2007;" horiz-adv-x="315" />
<glyph unicode="&#x2008;" horiz-adv-x="236" />
<glyph unicode="&#x2009;" horiz-adv-x="378" />
<glyph unicode="&#x200a;" horiz-adv-x="105" />
<glyph unicode="&#x2010;" horiz-adv-x="864" d="M2 614l68 248q88 3 312.5 4t391.5 -2l-67 -252q-73 2 -382.5 1.5t-322.5 0.5z" />
<glyph unicode="&#x2011;" horiz-adv-x="864" d="M2 614l68 248q88 3 312.5 4t391.5 -2l-67 -252q-73 2 -382.5 1.5t-322.5 0.5z" />
<glyph unicode="&#x2012;" horiz-adv-x="864" d="M2 614l68 248q88 3 312.5 4t391.5 -2l-67 -252q-73 2 -382.5 1.5t-322.5 0.5z" />
<glyph unicode="&#x2013;" horiz-adv-x="1101" d="M2 614l68 248q22 1 59 2t136.5 2t180.5 0q394 0 537 -2l-68 -252q-53 2 -114 2h-799z" />
<glyph unicode="&#x2014;" horiz-adv-x="1394" d="M2 614l68 248q22 1 59 2t136.5 2t180.5 0q714 0 857 -2l-68 -252q-53 2 -115 2h-1118z" />
<glyph unicode="&#x2018;" horiz-adv-x="471" d="M8 1124q62 237 64 244l43 152q1 0 18 -14.5t46.5 -39.5t51.5 -43q18 -16 42 -39t39 -38l14 -15q-17 -68 -58 -211h-137q-22 1 -61.5 2t-61.5 2z" />
<glyph unicode="&#x2019;" horiz-adv-x="546" d="M6 1313q19 74 60 217q8 2 132 1t128 -1q-54 -203 -66 -248q0 -2 -21 -77t-22 -75q-62 54 -115 97q-19 16 -43 37.5t-39 35.5z" />
<glyph unicode="&#x201a;" horiz-adv-x="567" d="M6 6q19 74 60 217h260q-54 -203 -66 -248q0 -2 -21 -76.5t-22 -74.5q-62 53 -115 96q-19 16 -43 37.5t-39 34.5z" />
<glyph unicode="&#x201c;" horiz-adv-x="768" d="M6 1120q54 203 66 248q0 2 21 77t22 75t18 -14.5t46.5 -39.5t51.5 -43q18 -16 42 -39t39 -38l14 -15q-19 -68 -60 -211h-260zM297 1120q8 31 53.5 194t55.5 206q1 0 210 -189q-16 -68 -57 -211h-262z" />
<glyph unicode="&#x201d;" horiz-adv-x="765" d="M2 1315q18 68 59 211h261q-54 -203 -66 -248q0 -2 -21 -77t-22 -75q-62 54 -115 97q-19 16 -43 39t-39 38zM309 1309q19 74 60 217h260q-54 -203 -66 -248q0 -2 -21 -77t-22 -75q-61 54 -114 97z" />
<glyph unicode="&#x201e;" horiz-adv-x="727" d="M2 1034q18 68 59 211h261q-54 -203 -66 -248q0 -2 -21 -76.5t-22 -74.5q-62 53 -115 96q-19 16 -43 39t-39 38zM309 1028q19 74 60 217h260q-54 -203 -66 -248q0 -2 -21 -76.5t-22 -74.5q-61 53 -114 96z" />
<glyph unicode="&#x2022;" d="M6 754q0 159 113 272t272 113t272 -113t113 -272q0 -160 -112.5 -272.5t-272.5 -112.5t-272.5 112.5t-112.5 272.5zM246 727q-3 -8 8 -8h27h71h7.5t5.5 -1t4 -3t0 -6q-2 -17 -13 -83.5t-22 -130t-12 -67.5q208 375 213 389q6 12 -5 12l-67 1q-67 1 -78 1q-6 1 -6 5 q1 8 15 123.5t14 117.5q0 4 -2 0q-2 -5 -42.5 -93t-79 -172t-38.5 -85z" />
<glyph unicode="&#x2026;" horiz-adv-x="1224" d="M4 0q29 146 59 244q20 0 62.5 1t64.5 1q89 0 132 -2l-64 -244h-123h-131zM406 6q5 22 59 238h258l-64 -244h-122h-127q-4 0 -4 6zM807 0q30 121 61 244h260l-63 -244h-125h-133z" />
<glyph unicode="&#x202f;" horiz-adv-x="378" />
<glyph unicode="&#x2039;" d="M6 754q0 159 113 272t272 113t272 -113t113 -272q0 -160 -112.5 -272.5t-272.5 -112.5t-272.5 112.5t-112.5 272.5zM246 727q-3 -8 8 -8h27h71h7.5t5.5 -1t4 -3t0 -6q-2 -17 -13 -83.5t-22 -130t-12 -67.5q208 375 213 389q6 12 -5 12l-67 1q-67 1 -78 1q-6 1 -6 5 q1 8 15 123.5t14 117.5q0 4 -2 0q-2 -5 -42.5 -93t-79 -172t-38.5 -85z" />
<glyph unicode="&#x203a;" horiz-adv-x="927" d="M0 1094l819 -220v-260q-376 -127 -778 -223q-4 -1 -12.5 -3t-12.5 -3q-1 48 -3 144.5t-3 144.5l299 69l-305 76q-4 184 -4 275z" />
<glyph unicode="&#x205f;" horiz-adv-x="473" />
<glyph unicode="&#x20ac;" horiz-adv-x="1132" d="M8 506l55 201h82q3 9 8 23.5t9 29.5h-84l53 198q35 3 88 3q28 99 47 163q35 120 147 213t238 93h1h1h1h1h1h1h1h1h1h1h1h1h1h1h1h1h1h1h1h1h1h1h1h1h1h1h1h1h1h1h1h1h1h1h1h1h1h1h1h1h1h1h1h1h1h1h1h1h1h1h1h1h1h1h1h1h1h1h1h2h1h1h1h1h1h1h1h2h1h1h1h1h1h2h1h1h1h1h2h1 h1h1h2h1h1h1h2h1h1h1h2h1h1h1h2h1h1h1h2h1h1h2h1h1h1h2h1h1h2h1h1h2h1h1h2h1h1h2h1h1h2h1h1h2h1h1h2h1h1h2h1h1h1h2h1h1h2h1h1h2h1h1h2h1h1h1h2h1h1h1h2h1h1h1h10q145 0 208 -90.5t29 -243.5h-266q6 47 -15 76.5t-87 29.5h-39q-75 -1 -113 -36.5t-59 -102.5 q-16 -49 -29 -100h41q187 0 332 -2l-54 -201h-116h-256q-11 -44 -13 -53h371l-53 -199q-189 -4 -369 -4q-14 -51 -33 -131q-14 -52 4.5 -88t69.5 -43q101 -8 144 14q69 37 92 115h260q-4 -8 -4 -15q-48 -168 -161.5 -260.5t-281.5 -93.5q-87 0 -110 2q-79 0 -131 15.5 t-95 58.5q-55 54 -59.5 145.5t29.5 208.5l10.5 38.5t9.5 35.5h-88z" />
<glyph unicode="&#x2122;" d="M6 754q0 159 113 272t272 113t272 -113t113 -272q0 -160 -112.5 -272.5t-272.5 -112.5t-272.5 112.5t-112.5 272.5zM246 727q-3 -8 8 -8h27h71h7.5t5.5 -1t4 -3t0 -6q-2 -17 -13 -83.5t-22 -130t-12 -67.5q208 375 213 389q6 12 -5 12l-67 1q-67 1 -78 1q-6 1 -6 5 q1 8 15 123.5t14 117.5q0 4 -2 0q-2 -5 -42.5 -93t-79 -172t-38.5 -85z" />
<glyph unicode="&#xe000;" horiz-adv-x="1433" d="M0 0v1434h1434v-1434h-1434z" />
<glyph unicode="&#xfb01;" d="M6 754q0 159 113 272t272 113t272 -113t113 -272q0 -160 -112.5 -272.5t-272.5 -112.5t-272.5 112.5t-112.5 272.5zM246 727q-3 -8 8 -8h27h71h7.5t5.5 -1t4 -3t0 -6q-2 -17 -13 -83.5t-22 -130t-12 -67.5q208 375 213 389q6 12 -5 12l-67 1q-67 1 -78 1q-6 1 -6 5 q1 8 15 123.5t14 117.5q0 4 -2 0q-2 -5 -42.5 -93t-79 -172t-38.5 -85z" />
<glyph unicode="&#xfb02;" d="M6 754q0 159 113 272t272 113t272 -113t113 -272q0 -160 -112.5 -272.5t-272.5 -112.5t-272.5 112.5t-112.5 272.5zM246 727q-3 -8 8 -8h27h71h7.5t5.5 -1t4 -3t0 -6q-2 -17 -13 -83.5t-22 -130t-12 -67.5q208 375 213 389q6 12 -5 12l-67 1q-67 1 -78 1q-6 1 -6 5 q1 8 15 123.5t14 117.5q0 4 -2 0q-2 -5 -42.5 -93t-79 -172t-38.5 -85z" />
</font>
</defs>
</svg>
